<?xml version="1.0" encoding="UTF-8"?>
<svg width="710px" height="786px" viewBox="0 0 710 786" version="1.1" xmlns="http://www.w3.org/2000/svg" xmlns:xlink="http://www.w3.org/1999/xlink">
    <!-- Generator: Sketch 64 (93537) - https://sketch.com -->
    <title>编组</title>
    <desc>Created with Sketch.</desc>
    <g id="页面-1" stroke="none" stroke-width="1" fill="none" fill-rule="evenodd">
        <g id="编组" transform="translate(-4.016216, -0.762162)" fill="#0091FF">
            <path d="M359.313297,1.16182486 L359.313297,1.16182486 C163.435935,1.16182486 4.64951351,159.948246 4.64951351,355.825609 C4.64951351,486.194646 74.9955459,600.124333 179.797795,661.746992 C230.222876,691.393176 293.782832,653.881565 293.782832,595.380722 L293.782832,363.945652 C293.782832,347.915901 292.094616,337.271836 288.740324,332.007922 C285.374962,326.744009 279.850897,324.120355 272.1792,324.120355 C257.776778,324.120355 250.570032,337.64269 250.570032,364.69843 L250.570032,525.970128 C250.570032,546.057133 234.2912,562.347036 214.198659,562.347036 L187.303438,562.347036 C149.470789,562.347036 118.800605,531.676852 118.800605,493.844203 L118.800605,336.142668 C118.800605,295.06643 131.996368,260.123122 158.404497,231.307209 C186.705643,200.415619 221.665557,186.085155 263.234422,188.321349 C276.87853,189.057522 290.118573,192.887836 302.88813,197.77536 C341.523373,212.554171 384.188195,211.369652 422.71827,196.103749 C436.185254,190.767879 449.607957,188.094409 463.002984,188.094409 C505.2416,188.094409 538.61293,202.380592 563.094832,230.936355 C587.576735,259.486582 599.820454,299.821111 599.820454,351.923338 L599.820454,493.844203 C599.820454,531.676852 569.155805,562.347036 531.323157,562.347036 L504.416865,562.347036 C484.329859,562.347036 468.045492,546.057133 468.045492,525.970128 L468.045492,363.945652 C468.045492,337.399144 461.082292,324.120355 447.161427,324.120355 C432.277449,324.120355 424.843762,337.64269 424.843762,364.69843 L424.843762,595.380722 C424.843762,653.881565 488.398184,691.393176 538.8288,661.746992 C643.625514,600.124333 713.971546,486.194646 713.971546,355.825609 C713.971546,159.948246 555.190659,1.16182486 359.313297,1.16182486" id="Fill-2"></path>
            <path d="M364.134954,785.76723 L354.492748,785.76723 C326.518175,785.76723 303.840726,763.089782 303.840726,735.126279 L303.840726,725.473003 C303.840726,697.503965 326.518175,674.826517 354.492748,674.826517 L364.134954,674.826517 C392.109526,674.826517 414.78144,697.503965 414.78144,725.473003 L414.78144,735.126279 C414.78144,763.089782 392.109526,785.76723 364.134954,785.76723" id="Fill-4"></path>
        </g>
    </g>
</svg>