<svg id="图层_1" data-name="图层 1" xmlns="http://www.w3.org/2000/svg" viewBox="0 0 151.887 125.37182">
  <defs>
    <style>
      .cls-1 {
        fill: #0091ff;
        fill-rule: evenodd;
      }

      .cls-2 {
        fill: #333;
      }
    </style>
  </defs>
  <g id="页面-1">
    <g id="编组">
      <path id="Fill-2" class="cls-1" d="M339.39541,74.62818h0a38.94625,38.94625,0,0,0-19.71133,72.53421A8.361,8.361,0,0,0,332.2,139.87518V114.46292a7.35774,7.35774,0,0,0-.55368-3.50685,1.99368,1.99368,0,0,0-1.81846-.86608q-2.37214,0-2.37275,4.45559v17.70811a3.99386,3.99386,0,0,1-3.99368,3.99429h-2.95318a7.52186,7.52186,0,0,1-7.52181-7.52181v-17.3161A16.42536,16.42536,0,0,1,317.335,99.89883a13.90136,13.90136,0,0,1,11.51064-4.72,14.42931,14.42931,0,0,1,4.35409,1.03808,18.11538,18.11538,0,0,0,13.15771-.18355,11.93287,11.93287,0,0,1,4.42338-.87945q6.95688,0,10.99038,4.70418,4.03227,4.70235,4.03258,13.28473v15.58333a7.52135,7.52135,0,0,1-7.5212,7.52181h-2.95439a3.99425,3.99425,0,0,1-3.99369-3.99429V114.46292q0-4.37232-2.29313-4.37293-2.45147,0-2.45055,4.45559v25.3296a8.36094,8.36094,0,0,0,12.5159,7.28721,38.94648,38.94648,0,0,0-19.71134-72.53421" transform="translate(-263.45161 -74.62818)"/>
      <path id="Fill-4" class="cls-1" d="M339.92485,160.78018H338.8661a5.56145,5.56145,0,0,1-5.56174-5.56052v-1.06a5.56158,5.56158,0,0,1,5.56174-5.56114h1.05875a5.56106,5.56106,0,0,1,5.56113,5.56114v1.06a5.56093,5.56093,0,0,1-5.56113,5.56052" transform="translate(-263.45161 -74.62818)"/>
    </g>
  </g>
  <g id="页面-1-2" data-name="页面-1">
    <g id="_1080-1920" data-name="1080-1920">
      <g id="编组-2">
        <path id="让社交更简单" class="cls-2" d="M308.91,183.53514v-1.13185h-3.514v-4.77081h3.052V176.5128h-3.052v-3.79717h-1.1916v9.68766h-2.52913v1.13185Zm-8.46283-8.11767.79035-.80325a14.94227,14.94227,0,0,0-2.00627-1.8134l-.80251.79108A12.36192,12.36192,0,0,1,300.44713,175.41747Zm-.99706,8.17853a16.49449,16.49449,0,0,0,2.49265-1.9351l-.304-1.21705c-.41342.40163-.81467.76674-1.20377,1.08317v-5.1846h-2.80878v1.10751h1.70229v4.53957a.67758.67758,0,0,1-.31614.55984Zm15.68282.3286v-4.89252a10.814,10.814,0,0,1,1.301,1.144l.6566-.998a11.68265,11.68265,0,0,0-1.909-1.33875,9.35268,9.35268,0,0,0,1.43479-2.55579V174.31h-1.28888a17.43913,17.43913,0,0,0-.5958-1.643l-1.09433.30426c.2067.43813.40125.87627.58364,1.33875h-1.71446v1.10751H315.449a11.1367,11.1367,0,0,1-3.23436,3.80934l.36478,1.217a18.23923,18.23923,0,0,0,1.42263-1.27789v4.75864Zm8.25613-.38946v-1.13185h-2.96686v-4.98987h2.6872v-1.13185h-2.6872v-3.48075h-1.16728v3.48075h-2.61424v1.13185h2.61424v4.98987h-3.03982v1.13185Zm14.46689-8.36108v-1.10751H333.126a12.27581,12.27581,0,0,0-.6566-1.43611l-1.28888.21906a9.58268,9.58268,0,0,1,.66876,1.21705H327.022v1.10751Zm-.8633,4.13794.85114-.85193a24.77318,24.77318,0,0,0-3.40459-3.14l-.79035.76674A21.44972,21.44972,0,0,1,336.99261,179.312Zm-9.241-.073a13.80252,13.80252,0,0,0,3.42891-3.16431l-.839-.7424a13.27134,13.27134,0,0,1-3.34379,2.93308Zm-.12159,4.75864a13.23491,13.23491,0,0,0,4.85154-2.32455,14.49283,14.49283,0,0,0,4.81506,2.27587l.71739-1.08317a13.91715,13.91715,0,0,1-4.63267-1.98378,11.4836,11.4836,0,0,0,2.03059-2.787l-1.07-.47465a9.209,9.209,0,0,1-1.89684,2.53145,8.693,8.693,0,0,1-1.9698-2.45842l-.99706.572a10.56037,10.56037,0,0,0,2.06708,2.62881,13.31036,13.31036,0,0,1-4.62052,2.03246Zm24.80225-.01217.29182-1.11968a17.69057,17.69057,0,0,1-5.89723-1.08317,5.0362,5.0362,0,0,0,.62012-1.7282h3.891v-5.002h-3.72073v-.83976h4.70563v-1.08317H341.78074v1.08317h4.69347v.83976H342.79v5.002h3.4897a4.22724,4.22724,0,0,1-.52284,1.25355,10.63867,10.63867,0,0,1-1.7023-1.08316l-.88762.60852a11.30027,11.30027,0,0,0,1.7874,1.22921,7.81988,7.81988,0,0,1-3.50186.85193l.49853,1.05883a8.354,8.354,0,0,0,4.13415-1.35092A17.42278,17.42278,0,0,0,352.43224,183.98545Zm-5.958-6.925h-2.54128v-1.02231h2.54128Zm3.72073,0h-2.57776v-1.02231h2.57776Zm0,1.98378H347.5807a7.05639,7.05639,0,0,0,.03648-.74239v-.29209h2.57776Zm-3.75721,0h-2.5048v-1.03448h2.54128v.29209C346.47421,178.54527,346.462,178.80085,346.43773,179.04425Zm13.14154-3.11563,1.02138-.37728a8.28682,8.28682,0,0,0-.62013-1.03449h1.605v-1.01014h-3.01549c.07295-.18256.15806-.37729.231-.58418l-1.11866-.24341a7.37948,7.37948,0,0,1-1.55637,2.5923l.97273.63286a8.34872,8.34872,0,0,0,.9849-1.38743h.69308A10.80548,10.80548,0,0,1,359.57927,175.92862Zm5.26495-.09736,1.02138-.37728a9.51905,9.51905,0,0,0-.58364-.93713h1.82388v-1.01014h-3.40459c.0608-.18256.1216-.37729.19455-.572l-1.10649-.24341a6.81275,6.81275,0,0,1-1.26456,2.39757l.97274.63287a7.47414,7.47414,0,0,0,.75387-1.20488h.82683A10.26019,10.26019,0,0,1,364.84422,175.83126ZM359.02,177.5838l.85114-.58418a11.64152,11.64152,0,0,0-1.4591-1.497l-.85115.52333A15.99532,15.99532,0,0,1,359.02,177.5838Zm6.10394,6.32863c.87546,0,1.31319-.4138,1.31319-1.22922v-6.68156h-5.654v1.05882h4.51108v5.30631c0,.35294-.13375.5355-.40125.5355l-1.09434-.03651.27967,1.04666Zm-7.04021.04868v-6.55986h-1.143v6.55986Zm5.88508-1.30224V177.9124h-4.584v4.74647Zm-1.07-2.86005H360.479v-.94929h2.41969Zm0,1.89859H360.479v-.97364h2.41969Zm13.94405,2.30021v-2.17851h4.8637v-1.09534h-4.8637v-.96146H380.6v-5.22112h-2.213a9.45089,9.45089,0,0,0,.91193-1.53347l-1.11864-.40162a12.10764,12.10764,0,0,1-.99706,1.93509h-2.45617l.72956-.36511a11.51658,11.51658,0,0,0-1.16729-1.50913l-.96058.46247a10.993,10.993,0,0,1,1.07,1.41177h-2.45617v5.22112h3.75721v.96146h-4.86369v1.09534h4.86369v2.17851Zm-1.143-7.35094h-2.63855v-1.09534h2.63855Zm3.78153,0h-2.63856v-1.09534h2.63856Zm0,2.09331h-2.63856v-1.11968h2.63856Zm-3.78153,0h-2.63855v-1.11968h2.63855Z" transform="translate(-263.45161 -74.62818)"/>
        <path id="MAKESOCIALLIFEEASIER" class="cls-2" d="M264.39553,199.8823v-4.28773h.03464l1.8965,4.28773h.814l1.8965-4.28773h.03464v4.28773h.94392v-6.00281h-1.11711l-2.14764,4.809h-.026l-2.15629-4.809h-1.11712v6.00281Zm8.97838,0,.5802-1.54694h2.65857l.5802,1.54694h1.0132l-2.38145-6.00281h-1.07381l-2.38145,6.00281Zm2.953-2.3036h-2.087l1.03052-2.71556h.03464Zm5.17672,2.3036v-2.07661l.80536-.74825,2.51135,2.82486h1.26433l-3.13485-3.42177,2.7365-2.581h-1.19506L281.50362,196.78v-2.90051h-.94392v6.00281Zm11.52436,0v-.78188H289.3822V197.192h3.29073v-.78188H289.3822v-1.74871h3.49856v-.78188h-4.44249v6.00281Zm9.6.1177a3.13978,3.13978,0,0,0,1.81856-.454,1.47817,1.47817,0,0,0,.64949-1.2695,1.44053,1.44053,0,0,0-.7967-1.29472,9.41122,9.41122,0,0,0-1.61939-.58851,6.96957,6.96957,0,0,1-1.07381-.36992.706.706,0,0,1-.459-.639.679.679,0,0,1,.39836-.65577,1.99505,1.99505,0,0,1,.93526-.17655,1.76918,1.76918,0,0,1,1.0565.26063,1.32247,1.32247,0,0,1,.48494.84073h.93527a1.88254,1.88254,0,0,0-.73609-1.44606,2.77747,2.77747,0,0,0-1.68866-.44559,2.91174,2.91174,0,0,0-1.63671.42878,1.40957,1.40957,0,0,0-.68412,1.24428,1.31662,1.31662,0,0,0,.7101,1.20224,11.2458,11.2458,0,0,0,1.42021.496,11.81711,11.81711,0,0,1,1.22969.40355.88289.88289,0,0,1,.58887.79029.696.696,0,0,1-.41567.63054,2.33043,2.33043,0,0,1-1.11712.23541,1.93834,1.93834,0,0,1-1.15175-.27744,1.46046,1.46046,0,0,1-.51959-1.01729h-.93526a2.06329,2.06329,0,0,0,.84,1.66465A3.13171,3.13171,0,0,0,302.628,200Zm7.82662,0a2.89066,2.89066,0,0,0,2.22557-.88277,3.586,3.586,0,0,0,0-4.46427,2.867,2.867,0,0,0-2.22557-.89118,2.81961,2.81961,0,0,0-2.22557.89959,3.59337,3.59337,0,0,0,0,4.44746A2.87073,2.87073,0,0,0,310.45462,200Zm0-.8071a1.92368,1.92368,0,0,1-1.53279-.639,2.93984,2.93984,0,0,1,0-3.3377,2.15784,2.15784,0,0,1,3.05692-.02523,2.55546,2.55546,0,0,1,.52825,1.69828,2.50785,2.50785,0,0,1-.52825,1.68146A1.90908,1.90908,0,0,1,310.45462,199.1929Zm8.39817.8071a2.71169,2.71169,0,0,0,1.71464-.55488,2.63557,2.63557,0,0,0,.9699-1.63943h-.91794a1.67545,1.67545,0,0,1-1.77526,1.38721,1.82605,1.82605,0,0,1-1.53279-.63055,2.63754,2.63754,0,0,1-.46763-1.67305,2.59913,2.59913,0,0,1,.47629-1.65624,1.76919,1.76919,0,0,1,1.50681-.66417,1.96544,1.96544,0,0,1,1.10846.28584,1.46224,1.46224,0,0,1,.59752.89958h.91794a2.20964,2.20964,0,0,0-.82268-1.44605,2.78874,2.78874,0,0,0-1.78392-.54648,2.72085,2.72085,0,0,0-2.25155.95,3.81409,3.81409,0,0,0-.026,4.34657A2.79077,2.79077,0,0,0,318.85279,200Zm6.33713-.1177v-6.00281h-.93526v6.00281Zm3.37547,0,.58021-1.54694h2.65856l.58021,1.54694h1.0132l-2.38145-6.00281H329.9423l-2.38145,6.00281Zm2.953-2.3036h-2.087l1.03052-2.71556h.03464Zm8.57136,2.3036v-.78188h-3.4033v-5.22093h-.93527v6.00281Zm11.49653,0v-.78188H348.183v-5.22093h-.93526v6.00281Zm3.47939,0v-6.00281h-.93526v6.00281Zm3.921,0V197.192h3.07423v-.78188h-3.07423v-1.74871h3.25609v-.78188h-4.2v6.00281Zm10.42456,0v-.78188h-3.64578V197.192h3.29073v-.78188h-3.29073v-1.74871h3.49857v-.78188h-4.44249v6.00281Zm11.92952,0v-.78188H377.695V197.192h3.29073v-.78188H377.695v-1.74871h3.49857v-.78188h-4.44249v6.00281Zm3.107,0,.58021-1.54694h2.65857l.58021,1.54694H389.28l-2.38145-6.00281h-1.07381l-2.38146,6.00281Zm2.953-2.3036h-2.087l1.03052-2.71556h.03465Zm6.493,2.4213a3.1398,3.1398,0,0,0,1.81856-.454,1.47817,1.47817,0,0,0,.64949-1.2695,1.44054,1.44054,0,0,0-.79671-1.29472,9.411,9.411,0,0,0-1.61938-.58851,6.96985,6.96985,0,0,1-1.07382-.36992.706.706,0,0,1-.459-.639.679.679,0,0,1,.39836-.65577,1.99506,1.99506,0,0,1,.93525-.17655,1.76918,1.76918,0,0,1,1.0565.26063,1.32253,1.32253,0,0,1,.485.84073h.93525a1.88253,1.88253,0,0,0-.73608-1.44606,2.77751,2.77751,0,0,0-1.68867-.44559,2.9117,2.9117,0,0,0-1.6367.42878,1.40957,1.40957,0,0,0-.68412,1.24428,1.31662,1.31662,0,0,0,.7101,1.20224,11.24478,11.24478,0,0,0,1.4202.496,11.81768,11.81768,0,0,1,1.2297.40355.88288.88288,0,0,1,.58886.79029.69593.69593,0,0,1-.41566.63054,2.33043,2.33043,0,0,1-1.11712.23541,1.9384,1.9384,0,0,1-1.15176-.27744,1.46054,1.46054,0,0,1-.51959-1.01729h-.93525a2.06329,2.06329,0,0,0,.84,1.66465A3.13168,3.13168,0,0,0,393.89381,200Zm6.04269-.1177v-6.00281h-.93525v6.00281Zm7.56683,0v-.78188h-3.64578V197.192h3.29073v-.78188h-3.29073v-1.74871h3.49856v-.78188h-4.44248v6.00281Zm3.65259,0v-2.48016h1.67135a1.2761,1.2761,0,0,1,.814.21859,1.02888,1.02888,0,0,1,.32907.723l.07793.74825a1.51139,1.51139,0,0,0,.26846.79029h1.02186a1.43158,1.43158,0,0,1-.36371-.88277l-.10392-.95843a1.10446,1.10446,0,0,0-.9266-1.05932V196.965a1.38581,1.38581,0,0,0,.80536-.52966,1.40907,1.40907,0,0,0,.2598-.84074,1.55938,1.55938,0,0,0-.57156-1.30313,2.4114,2.4114,0,0,0-1.48948-.41195H410.212v6.00281Zm1.67135-3.262h-1.67135v-1.9589h1.66268a1.54653,1.54653,0,0,1,.95259.2354.88231.88231,0,0,1,.29442.73144.90624.90624,0,0,1-.30309.73143A1.46417,1.46417,0,0,1,412.82727,196.62027Z" transform="translate(-263.45161 -74.62818)"/>
      </g>
    </g>
  </g>
</svg>
