<?xml version="1.0" encoding="UTF-8"?>
<svg width="420px" height="76px" viewBox="0 0 420 76" version="1.1" xmlns="http://www.w3.org/2000/svg" xmlns:xlink="http://www.w3.org/1999/xlink">
    <!-- Generator: Sketch 64 (93537) - https://sketch.com -->
    <title>编组 2</title>
    <desc>Created with Sketch.</desc>
    <g id="页面-1" stroke="none" stroke-width="1" fill="none" fill-rule="evenodd">
        <g id="1080-1920" transform="translate(-330.000000, -1739.000000)" fill="#333333" fill-rule="nonzero">
            <g id="编组-2" transform="translate(330.000000, 1739.250000)">
                <path d="M125.702058,30.2211538 L125.702058,27.0913462 L115.985038,27.0913462 L115.985038,13.8990385 L124.424387,13.8990385 L124.424387,10.8028846 L115.985038,10.8028846 L115.985038,0.302884615 L112.689993,0.302884615 L112.689993,27.0913462 L105.696428,27.0913462 L105.696428,30.2211538 L125.702058,30.2211538 Z M102.300514,7.77403846 L104.486003,5.55288462 C102.972973,3.87019231 101.123713,2.22115385 98.9382237,0.538461538 L96.7191119,2.72596154 C99.1063383,4.50961538 100.955598,6.19230769 102.300514,7.77403846 Z M99.543436,30.3894231 C101.997908,28.8413462 104.284266,27.0576923 106.436132,25.0384615 L105.595559,21.6730769 C104.45238,22.7836538 103.342825,23.7932692 102.266892,24.6682692 L102.266892,10.3317308 L94.5,10.3317308 L94.5,13.3942308 L99.207207,13.3942308 L99.207207,25.9471154 C99.207207,26.5528846 98.9046008,27.0913462 98.3330114,27.4951923 L99.543436,30.3894231 Z M142.909781,31.2980769 L142.909781,17.7692308 C144.086583,18.6442308 145.297008,19.6875 146.507432,20.9326923 L148.323069,18.1730769 C146.70917,16.7596154 144.927156,15.5480769 143.044273,14.4711538 C144.85991,12.1153846 146.171203,9.75961538 147.011776,7.40384615 L147.011776,4.71153846 L143.447748,4.71153846 C143.044273,3.33173077 142.472683,1.81730769 141.800225,0.168269231 L138.774164,1.00961538 C139.345753,2.22115385 139.883719,3.43269231 140.388063,4.71153846 L135.647233,4.71153846 L135.647233,7.77403846 L143.783977,7.77403846 C142.237323,11.2067308 139.244884,14.7067308 134.840283,18.3076923 L135.848971,21.6730769 C137.261133,20.5288462 138.572426,19.3509615 139.782851,18.1394231 L139.782851,31.2980769 L142.909781,31.2980769 Z M165.739735,30.2211538 L165.739735,27.0913462 L157.535746,27.0913462 L157.535746,13.2932692 L164.966408,13.2932692 L164.966408,10.1634615 L157.535746,10.1634615 L157.535746,0.538461538 L154.307947,0.538461538 L154.307947,10.1634615 L147.079022,10.1634615 L147.079022,13.2932692 L154.307947,13.2932692 L154.307947,27.0913462 L145.90222,27.0913462 L145.90222,30.2211538 L165.739735,30.2211538 Z M205.743789,7.10096154 L205.743789,4.03846154 L192.664479,4.03846154 C192.092889,2.55769231 191.487677,1.24519231 190.848842,0.0673076923 L187.284813,0.673076923 C187.957272,1.68269231 188.562484,2.82692308 189.134073,4.03846154 L175.785779,4.03846154 L175.785779,7.10096154 L205.743789,7.10096154 Z M203.356563,18.5432692 L205.710166,16.1875 C203.154825,13.2932692 200.027895,10.3990385 196.295752,7.50480769 L194.110264,9.625 C198.077767,12.8221154 201.171074,15.7836538 203.356563,18.5432692 Z M177.803154,18.3413462 C181.568919,15.8509615 184.729472,12.9567308 187.284813,9.59134615 L184.964833,7.53846154 C182.476738,10.6346154 179.38343,13.3605769 175.718533,15.6490385 L177.803154,18.3413462 Z M177.466925,31.5 C182.712098,30.1201923 187.183945,27.9663462 190.882464,25.0721154 C194.513738,27.7980769 198.951962,29.8846154 204.197136,31.3653846 L206.180887,28.3701923 C201.137451,27.125 196.867342,25.3076923 193.37056,22.8846154 C195.589671,20.6634615 197.438931,18.1057692 198.985585,15.1778846 L196.026769,13.8653846 C194.681853,16.4903846 192.933462,18.8461538 190.781596,20.8653846 C188.528861,18.9134615 186.713224,16.625 185.334685,14.0673077 L182.577606,15.6490385 C184.090637,18.375 186.007143,20.7980769 188.293501,22.9182692 C184.830341,25.4086538 180.560232,27.2932692 175.516796,28.5384615 L177.466925,31.5 Z M246.05045,31.4663462 L246.8574,28.3701923 C240.603539,28.1682692 235.190251,27.1923077 230.55029,25.375 C231.323617,24.1298077 231.895206,22.5480769 232.265058,20.5961538 L243.024388,20.5961538 L243.024388,6.76442308 L232.735779,6.76442308 L232.735779,4.44230769 L245.747844,4.44230769 L245.747844,1.44711538 L216.596783,1.44711538 L216.596783,4.44230769 L229.575225,4.44230769 L229.575225,6.76442308 L219.387485,6.76442308 L219.387485,20.5961538 L229.037259,20.5961538 C228.70103,21.9423077 228.196686,23.1201923 227.591474,24.0625 C225.910329,23.1875 224.330052,22.2115385 222.884267,21.0673077 L220.429795,22.75 C221.909203,23.9951923 223.556725,25.1394231 225.372362,26.1490385 C223.220496,27.4615385 219.992697,28.2355769 215.688965,28.5048077 L217.067504,31.4326923 C222.279055,30.8269231 226.078443,29.5817308 228.499292,27.6971154 C233.475483,29.9182692 239.325868,31.1634615 246.05045,31.4663462 Z M229.575225,12.3173077 L222.548038,12.3173077 L222.548038,9.49038462 L229.575225,9.49038462 L229.575225,12.3173077 Z M239.863835,12.3173077 L232.735779,12.3173077 L232.735779,9.49038462 L239.863835,9.49038462 L239.863835,12.3173077 Z M239.863835,17.8028846 L232.63491,17.8028846 C232.702156,17.1634615 232.735779,16.4903846 232.735779,15.75 L232.735779,14.9423077 L239.863835,14.9423077 L239.863835,17.8028846 Z M229.474357,17.8028846 L222.548038,17.8028846 L222.548038,14.9423077 L229.575225,14.9423077 L229.575225,15.75 C229.575225,16.4230769 229.541603,17.1298077 229.474357,17.8028846 Z M265.813514,9.1875 L268.637838,8.14423077 C268.200741,7.26923077 267.629151,6.29326923 266.92307,5.28365385 L271.361294,5.28365385 L271.361294,2.49038462 L263.022813,2.49038462 C263.22455,1.98557692 263.459911,1.44711538 263.661648,0.875 L260.568341,0.201923077 C259.694145,2.75961538 258.281983,5.14903846 256.264609,7.37019231 L258.954441,9.12019231 C259.963128,7.97596154 260.870947,6.69711538 261.677897,5.28365385 L263.594402,5.28365385 C264.434975,6.52884615 265.174679,7.84134615 265.813514,9.1875 Z M280.372233,8.91826923 L283.196557,7.875 C282.759459,7.06730769 282.221493,6.19230769 281.582658,5.28365385 L286.626094,5.28365385 L286.626094,2.49038462 L277.21168,2.49038462 C277.379794,1.98557692 277.547909,1.44711538 277.749646,0.908653846 L274.689962,0.235576923 C274.017504,2.59134615 272.840702,4.8125 271.193179,6.86538462 L273.883012,8.61538462 C274.656339,7.60576923 275.36242,6.49519231 275.967632,5.28365385 L278.25399,5.28365385 C279.06094,6.46153846 279.767021,7.67307692 280.372233,8.91826923 Z M264.266861,13.7644231 L266.620464,12.1490385 C265.679023,10.9375 264.334106,9.55769231 262.585715,8.00961538 L260.232112,9.45673077 C261.913257,11.0721154 263.258173,12.4855769 264.266861,13.7644231 Z M281.14556,31.2644231 C283.566409,31.2644231 284.776834,30.1201923 284.776834,27.8653846 L284.776834,9.38942308 L269.142182,9.38942308 L269.142182,12.3173077 L281.616281,12.3173077 L281.616281,26.9903846 C281.616281,27.9663462 281.246429,28.4711538 280.506725,28.4711538 L277.480663,28.3701923 L278.25399,31.2644231 L281.14556,31.2644231 Z M261.677897,31.3990385 L261.677897,13.2596154 L258.517343,13.2596154 L258.517343,31.3990385 L261.677897,31.3990385 Z M277.951384,27.7980769 L277.951384,14.6730769 L265.275548,14.6730769 L265.275548,27.7980769 L277.951384,27.7980769 Z M274.992568,19.8894231 L268.301609,19.8894231 L268.301609,17.2644231 L274.992568,17.2644231 L274.992568,19.8894231 Z M274.992568,25.1394231 L268.301609,25.1394231 L268.301609,22.4471154 L274.992568,22.4471154 L274.992568,25.1394231 Z M313.550837,31.5 L313.550837,25.4759615 L327,25.4759615 L327,22.4471154 L313.550837,22.4471154 L313.550837,19.7884615 L323.940315,19.7884615 L323.940315,5.35096154 L317.820946,5.35096154 C318.762388,4.07211538 319.60296,2.65865385 320.342664,1.11057692 L317.249357,-8.8817842e-14 C316.47603,1.88461538 315.568212,3.66826923 314.492279,5.35096154 L307.700451,5.35096154 L309.717826,4.34134615 C308.709139,2.79326923 307.633206,1.41346154 306.490027,0.168269231 L303.833817,1.44711538 C304.876127,2.59134615 305.851192,3.90384615 306.792633,5.35096154 L300.000806,5.35096154 L300.000806,19.7884615 L310.390284,19.7884615 L310.390284,22.4471154 L296.941121,22.4471154 L296.941121,25.4759615 L310.390284,25.4759615 L310.390284,31.5 L313.550837,31.5 Z M310.390284,11.1730769 L303.094113,11.1730769 L303.094113,8.14423077 L310.390284,8.14423077 L310.390284,11.1730769 Z M320.847008,11.1730769 L313.550837,11.1730769 L313.550837,8.14423077 L320.847008,8.14423077 L320.847008,11.1730769 Z M320.847008,16.9615385 L313.550837,16.9615385 L313.550837,13.8653846 L320.847008,13.8653846 L320.847008,16.9615385 Z M310.390284,16.9615385 L303.094113,16.9615385 L303.094113,13.8653846 L310.390284,13.8653846 L310.390284,16.9615385 Z" id="让社交更简单"></path>
                <path d="M2.6101405,75.4245283 L2.6101405,63.5680593 L2.70592547,63.5680593 L7.95015272,75.4245283 L10.2010996,75.4245283 L15.4453268,63.5680593 L15.5411118,63.5680593 L15.5411118,75.4245283 L18.1512523,75.4245283 L18.1512523,58.8254717 L15.0621869,58.8254717 L9.12351863,72.1233154 L9.0516799,72.1233154 L3.08906536,58.8254717 L0,58.8254717 L0,75.4245283 L2.6101405,75.4245283 Z M27.4372633,75.4245283 L29.0416616,71.1469003 L36.3931582,71.1469003 L37.9975565,75.4245283 L40.799267,75.4245283 L34.2140501,58.8254717 L31.2447159,58.8254717 L24.6594991,75.4245283 L27.4372633,75.4245283 Z M35.6029322,69.0545822 L29.8318876,69.0545822 L32.6814905,61.5454852 L32.7772755,61.5454852 L35.6029322,69.0545822 Z M49.9176542,75.4245283 L49.9176542,69.6822776 L52.1446549,67.6132075 L59.0890654,75.4245283 L62.5852169,75.4245283 L53.9166768,65.9626011 L61.4836897,58.8254717 L58.1791081,58.8254717 L49.9176542,66.8460243 L49.9176542,58.8254717 L47.3075137,58.8254717 L47.3075137,75.4245283 L49.9176542,75.4245283 Z M81.7849725,75.4245283 L81.7849725,73.2624663 L71.7036042,73.2624663 L71.7036042,67.9851752 L80.8031765,67.9851752 L80.8031765,65.8231132 L71.7036042,65.8231132 L71.7036042,60.9875337 L81.3778864,60.9875337 L81.3778864,58.8254717 L69.0934637,58.8254717 L69.0934637,75.4245283 L81.7849725,75.4245283 Z M108.331093,75.75 C110.486255,75.75 112.162492,75.3315364 113.359805,74.4946092 C114.557117,73.634434 115.155773,72.472035 115.155773,70.9841644 C115.155773,69.4497978 114.413439,68.2641509 112.952718,67.4039757 C112.282224,67.0087601 110.77361,66.4740566 108.474771,65.7766173 C106.870373,65.3116577 105.888577,64.962938 105.505437,64.7537062 C104.643372,64.3119946 104.236286,63.7307951 104.236286,62.9868598 C104.236286,62.1499326 104.59548,61.5454852 105.337813,61.1735175 C105.936469,60.8480458 106.798534,60.68531 107.924007,60.68531 C109.217104,60.68531 110.174954,60.9177898 110.845449,61.4059973 C111.515944,61.8709569 111.946976,62.6613881 112.186439,63.7307951 L114.772633,63.7307951 C114.605009,61.9174528 113.934514,60.5923181 112.737202,59.7321429 C111.611729,58.8952156 110.055223,58.5 108.067685,58.5 C106.24777,58.5 104.739157,58.8952156 103.541845,59.6856469 C102.272694,60.5225741 101.650092,61.6617251 101.650092,63.1263477 C101.650092,64.5677224 102.29664,65.6836253 103.613684,66.4508086 C104.140501,66.7297844 105.433598,67.171496 107.540867,67.8224394 C109.432621,68.3803908 110.558094,68.7523585 110.941234,68.9383423 C112.018815,69.4730458 112.569578,70.1937332 112.569578,71.1236523 C112.569578,71.8675876 112.186439,72.4487871 111.420159,72.8672507 C110.653879,73.2857143 109.624191,73.5181941 108.331093,73.5181941 C106.894319,73.5181941 105.840684,73.2624663 105.146243,72.7510108 C104.379963,72.1930593 103.901038,71.2398922 103.709469,69.9380054 L101.123274,69.9380054 C101.266952,72.0303235 102.033232,73.56469 103.44606,74.5411051 C104.619426,75.3315364 106.24777,75.75 108.331093,75.75 Z M129.973366,75.75 C132.55956,75.75 134.618937,74.9363208 136.12755,73.3089623 C137.564325,71.7280997 138.282712,69.6822776 138.282712,67.148248 C138.282712,64.5909704 137.564325,62.5219003 136.12755,60.9642857 C134.618937,59.3136792 132.55956,58.5 129.973366,58.5 C127.363225,58.5 125.303849,59.3136792 123.819181,60.9875337 C122.382407,62.5683962 121.687966,64.6142183 121.687966,67.148248 C121.687966,69.6590296 122.382407,71.7048518 123.819181,73.2857143 C125.303849,74.9130728 127.363225,75.75 129.973366,75.75 Z M129.973366,73.5181941 C128.153451,73.5181941 126.740623,72.9137466 125.734881,71.7513477 C124.777031,70.6121968 124.298106,69.0778302 124.298106,67.148248 C124.298106,65.1954178 124.777031,63.6610512 125.734881,62.5219003 C126.740623,61.3130054 128.153451,60.7318059 129.973366,60.7318059 C131.79328,60.7318059 133.206109,61.2897574 134.187905,62.4521563 C135.145754,63.5913073 135.648626,65.1489218 135.648626,67.148248 C135.648626,69.1243261 135.145754,70.6819407 134.187905,71.7978437 C133.206109,72.9369946 131.79328,73.5181941 129.973366,73.5181941 Z M153.19609,75.75 C155.039951,75.75 156.620403,75.2385445 157.937447,74.2156334 C159.350275,73.1229784 160.236286,71.6118598 160.619426,69.6822776 L158.081124,69.6822776 C157.745877,70.9841644 157.147221,71.9605795 156.285156,72.6115229 C155.470984,73.2159704 154.417349,73.5181941 153.172144,73.5181941 C151.256445,73.5181941 149.843616,72.9369946 148.933659,71.7745957 C148.071594,70.6819407 147.640562,69.1475741 147.640562,67.148248 C147.640562,65.2186658 148.071594,63.6842992 148.957605,62.5683962 C149.891509,61.3362534 151.280391,60.7318059 153.124252,60.7318059 C154.369456,60.7318059 155.375199,60.9875337 156.189371,61.5222372 C157.003543,62.0569407 157.554307,62.8938679 157.841662,64.0097709 L160.379963,64.0097709 C160.116555,62.3359164 159.350275,60.9875337 158.10507,60.0111186 C156.811973,58.9882075 155.159682,58.5 153.172144,58.5 C150.442272,58.5 148.382896,59.3601752 146.946121,61.1270216 C145.653024,62.6846361 145.030422,64.6839623 145.030422,67.148248 C145.030422,69.6590296 145.629078,71.6583558 146.874282,73.1462264 C148.287111,74.8665768 150.39438,75.75 153.19609,75.75 Z M170.719609,75.4245283 L170.719609,58.8254717 L168.133415,58.8254717 L168.133415,75.4245283 L170.719609,75.4245283 Z M180.053513,75.4245283 L181.657911,71.1469003 L189.009407,71.1469003 L190.613806,75.4245283 L193.415516,75.4245283 L186.830299,58.8254717 L183.860965,58.8254717 L177.275748,75.4245283 L180.053513,75.4245283 Z M188.219181,69.0545822 L182.448137,69.0545822 L185.29774,61.5454852 L185.393525,61.5454852 L188.219181,69.0545822 Z M211.920831,75.4245283 L211.920831,73.2624663 L202.509957,73.2624663 L202.509957,58.8254717 L199.923763,58.8254717 L199.923763,75.4245283 L211.920831,75.4245283 Z M243.711179,75.4245283 L243.711179,73.2624663 L234.300305,73.2624663 L234.300305,58.8254717 L231.714111,58.8254717 L231.714111,75.4245283 L243.711179,75.4245283 Z M253.332437,75.4245283 L253.332437,58.8254717 L250.746243,58.8254717 L250.746243,75.4245283 L253.332437,75.4245283 Z M264.174954,75.4245283 L264.174954,67.9851752 L272.67587,67.9851752 L272.67587,65.8231132 L264.174954,65.8231132 L264.174954,60.9875337 L273.178742,60.9875337 L273.178742,58.8254717 L261.564814,58.8254717 L261.564814,75.4245283 L264.174954,75.4245283 Z M293.0011,75.4245283 L293.0011,73.2624663 L282.919731,73.2624663 L282.919731,67.9851752 L292.019304,67.9851752 L292.019304,65.8231132 L282.919731,65.8231132 L282.919731,60.9875337 L292.594013,60.9875337 L292.594013,58.8254717 L280.309591,58.8254717 L280.309591,75.4245283 L293.0011,75.4245283 Z M325.98876,75.4245283 L325.98876,73.2624663 L315.907392,73.2624663 L315.907392,67.9851752 L325.006964,67.9851752 L325.006964,65.8231132 L315.907392,65.8231132 L315.907392,60.9875337 L325.581674,60.9875337 L325.581674,58.8254717 L313.297251,58.8254717 L313.297251,75.4245283 L325.98876,75.4245283 Z M334.58033,75.4245283 L336.184728,71.1469003 L343.536225,71.1469003 L345.140623,75.4245283 L347.942334,75.4245283 L341.357117,58.8254717 L338.387783,58.8254717 L331.802566,75.4245283 L334.58033,75.4245283 Z M342.745999,69.0545822 L336.974954,69.0545822 L339.824557,61.5454852 L339.920342,61.5454852 L342.745999,69.0545822 Z M360.70055,75.75 C362.855712,75.75 364.531949,75.3315364 365.729261,74.4946092 C366.926573,73.634434 367.525229,72.472035 367.525229,70.9841644 C367.525229,69.4497978 366.782896,68.2641509 365.322175,67.4039757 C364.65168,67.0087601 363.143067,66.4740566 360.844227,65.7766173 C359.239829,65.3116577 358.258033,64.962938 357.874893,64.7537062 C357.012828,64.3119946 356.605742,63.7307951 356.605742,62.9868598 C356.605742,62.1499326 356.964936,61.5454852 357.707269,61.1735175 C358.305925,60.8480458 359.16799,60.68531 360.293464,60.68531 C361.586561,60.68531 362.544411,60.9177898 363.214905,61.4059973 C363.8854,61.8709569 364.316432,62.6613881 364.555895,63.7307951 L367.142089,63.7307951 C366.974465,61.9174528 366.303971,60.5923181 365.106659,59.7321429 C363.981185,58.8952156 362.424679,58.5 360.437141,58.5 C358.617227,58.5 357.108613,58.8952156 355.911301,59.6856469 C354.64215,60.5225741 354.019548,61.6617251 354.019548,63.1263477 C354.019548,64.5677224 354.666097,65.6836253 355.98314,66.4508086 C356.509957,66.7297844 357.803054,67.171496 359.910324,67.8224394 C361.802077,68.3803908 362.92755,68.7523585 363.31069,68.9383423 C364.388271,69.4730458 364.939035,70.1937332 364.939035,71.1236523 C364.939035,71.8675876 364.555895,72.4487871 363.789615,72.8672507 C363.023335,73.2857143 361.993647,73.5181941 360.70055,73.5181941 C359.263775,73.5181941 358.210141,73.2624663 357.515699,72.7510108 C356.74942,72.1930593 356.270495,71.2398922 356.078925,69.9380054 L353.492731,69.9380054 C353.636408,72.0303235 354.402688,73.56469 355.815516,74.5411051 C356.988882,75.3315364 358.617227,75.75 360.70055,75.75 Z M377.409896,75.4245283 L377.409896,58.8254717 L374.823702,58.8254717 L374.823702,75.4245283 L377.409896,75.4245283 Z M398.333781,75.4245283 L398.333781,73.2624663 L388.252413,73.2624663 L388.252413,67.9851752 L397.351985,67.9851752 L397.351985,65.8231132 L388.252413,65.8231132 L388.252413,60.9875337 L397.926695,60.9875337 L397.926695,58.8254717 L385.642272,58.8254717 L385.642272,75.4245283 L398.333781,75.4245283 Z M408.433965,75.4245283 L408.433965,68.5663747 L413.055589,68.5663747 C414.037385,68.5663747 414.779719,68.7523585 415.306536,69.1708221 C415.809407,69.5892857 416.120709,70.2402291 416.216494,71.1701482 L416.43201,73.2392183 C416.527795,74.1691375 416.767257,74.9130728 417.174343,75.4245283 L420,75.4245283 C419.42529,74.8200809 419.090043,74.0064016 418.994258,72.9834906 L418.706903,70.333221 C418.515333,68.7058625 417.677214,67.7294474 416.144655,67.4039757 L416.144655,67.3574798 C417.078558,67.125 417.820892,66.6367925 418.371655,65.8928571 C418.85058,65.2186658 419.090043,64.4514825 419.090043,63.5680593 C419.090043,61.9871968 418.563225,60.8015499 417.509591,59.9646226 C416.503849,59.1974394 415.114966,58.8254717 413.390837,58.8254717 L405.823824,58.8254717 L405.823824,75.4245283 L408.433965,75.4245283 Z M413.055589,66.4043127 L408.433965,66.4043127 L408.433965,60.9875337 L413.031643,60.9875337 C414.228955,60.9875337 415.09102,61.1967655 415.66573,61.6384771 C416.192547,62.0569407 416.479902,62.7311321 416.479902,63.6610512 C416.479902,64.5444744 416.192547,65.2186658 415.641784,65.6836253 C415.067074,66.1485849 414.205009,66.4043127 413.055589,66.4043127 Z" id="MAKESOCIALLIFEEASIER"></path>
            </g>
        </g>
    </g>
</svg>