<?xml version="1.0" encoding="UTF-8"?>
<svg width="30px" height="30px" viewBox="0 0 30 30" version="1.1" xmlns="http://www.w3.org/2000/svg" xmlns:xlink="http://www.w3.org/1999/xlink">
    <!-- Generator: Sketch 60.1 (88133) - https://sketch.com -->
    <title>通讯录未选中</title>
    <desc>Created with Sketch.</desc>
    <g id="页面-1" stroke="none" stroke-width="1" fill="none" fill-rule="evenodd">
        <g id="90我的群组" transform="translate(-22.000000, -208.000000)" fill="#0091FF" fill-rule="nonzero">
            <g id="通讯录未选中" transform="translate(22.000000, 208.000000)">
                <path d="M1.56563384,9.06342711 L6.56752888,9.06342711 C7.42964412,9.06342711 8.13316269,9.71869569 8.13316269,10.5238178 C8.13316269,11.3275776 7.42964412,11.9842085 6.56617337,11.9842085 L1.56427833,11.9842085 C0.702163087,11.9842085 2.9268274e-08,11.3289399 2.9268274e-08,10.5238178 C2.9268274e-08,9.72005801 0.702163087,9.06342711 1.56563384,9.06342711 Z M1.59545544,18.3093894 L6.59735048,18.3093894 C7.4581102,18.3093894 8.16298429,18.9632957 8.16298429,19.7697801 C8.16298429,20.5735399 7.45946572,21.2301708 6.59735048,21.2301708 L1.59545544,21.2301708 C0.734695712,21.2301708 0.0298216237,20.5735399 0.0298216237,19.7697801 C0.0298216237,18.9660203 0.733340197,18.3093894 1.59545544,18.3093894 Z" id="形状"></path>
                <path d="M25.147739,9.9552736e-07 L7.44455493,9.9552736e-07 C6.19876425,-0.00288004136 5.00295249,0.492175561 4.12064573,1.37608292 C3.23833898,2.25999029 2.74195205,3.46020322 2.74087584,4.71222574 L2.74087584,7.67660087 L6.72341452,7.67660087 C8.27142649,7.67660087 9.53342224,8.94218198 9.53342221,10.4924848 C9.52745163,12.048132 8.27133349,13.3062679 6.72341452,13.3070064 L2.74087584,13.3070064 L2.74087584,16.9034909 L6.55804019,16.9034909 C8.10605216,16.9034909 9.36804791,18.169072 9.36804791,19.7193749 C9.36207731,21.275022 8.10595917,22.533158 6.55804019,22.5338965 L2.74087584,22.5338965 L2.74087584,25.258506 C2.74195205,26.5105285 3.23833898,27.7107414 4.12064573,28.5946488 C5.00295249,29.4785561 6.19876425,29.9736117 7.44455493,29.9707307 L25.147739,29.9707307 C26.3935297,29.9736117 27.5893415,29.4785561 28.4716482,28.5946488 C29.353955,27.7107414 29.8503419,26.5105285 29.8514181,25.258506 L29.8514181,4.71358806 C29.843947,2.10815069 27.7402248,9.9552736e-07 25.147739,9.9552736e-07 Z M23.396398,23.193252 C23.396398,24.0596778 22.8080992,24.7585401 22.1059362,24.7585401 C21.3915734,24.7585401 20.8141188,24.0446924 20.8141188,23.193252 L20.8141188,5.4751164 C20.8141188,4.60869059 21.4037731,3.90846594 22.1059362,3.90846594 C22.820299,3.90846594 23.396398,4.62367592 23.396398,5.4751164 L23.396398,23.193252 Z" id="形状"></path>
            </g>
        </g>
    </g>
</svg>