<?xml version="1.0" encoding="UTF-8"?>
<svg width="30px" height="30px" viewBox="0 0 30 30" version="1.1" xmlns="http://www.w3.org/2000/svg" xmlns:xlink="http://www.w3.org/1999/xlink">
    <!-- Generator: Sketch 60.1 (88133) - https://sketch.com -->
    <title>编组</title>
    <desc>Created with Sketch.</desc>
    <g id="页面-1" stroke="none" stroke-width="1" fill="none" fill-rule="evenodd">
        <g id="90我的群组" transform="translate(-22.000000, -380.000000)" fill="#CCCCCC" fill-rule="nonzero">
            <g id="编组" transform="translate(22.000000, 380.000000)">
                <path d="M16.060085,0.282387856 C16.5530075,0.535670718 16.951199,0.953335865 17.1936462,1.46828845 L20.4562475,8.37569811 L27.7505376,9.48276233 C28.6917232,9.62603049 29.4735549,10.3148365 29.7675727,11.2598019 C30.0615905,12.2047673 29.8168535,13.2421697 29.1361798,13.9361797 L23.8569313,19.3138279 L25.1028853,26.9056045 C25.2622525,27.8844921 24.876484,28.8731138 24.1074546,29.456628 C23.3384251,30.0401423 22.3191819,30.1175972 21.477416,29.6564913 L14.9538191,26.0753064 L8.43022219,29.6598461 C7.58814072,30.1236354 6.56694657,30.0471886 5.79676827,29.4627052 C5.02658998,28.8782218 4.64128611,27.8872861 4.80314725,26.9072819 L6.0507069,19.3155053 L0.771458389,13.9378571 C0.0907846281,13.2438471 -0.153952338,12.2064447 0.140065447,11.2614793 C0.434083232,10.3165139 1.21591499,9.62770782 2.15710056,9.48443968 L9.45139067,8.37737548 L12.7123863,1.46996583 C13.0052444,0.847954695 13.5229248,0.373199354 14.151248,0.150411981 C14.7795711,-0.0723753916 15.4669192,-0.0248924856 16.0616906,0.282387856 L16.060085,0.282387856 Z" id="路径"></path>
            </g>
        </g>
    </g>
</svg>