<?xml version="1.0" encoding="UTF-8"?>
<svg width="30px" height="30px" viewBox="0 0 30 30" version="1.1" xmlns="http://www.w3.org/2000/svg" xmlns:xlink="http://www.w3.org/1999/xlink">
    <!-- Generator: Sketch 60.1 (88133) - https://sketch.com -->
    <title>编组</title>
    <desc>Created with Sketch.</desc>
    <g id="页面-1" stroke="none" stroke-width="1" fill="none" fill-rule="evenodd">
        <g id="90我的群组" transform="translate(-22.000000, -294.000000)" fill="#CCCCCC" fill-rule="nonzero">
            <g id="编组" transform="translate(22.000000, 294.000000)">
                <path d="M21.3958909,4.42786302 C20.8261395,3.73549777 20.1873273,3.1179828 19.4621892,2.53789295 C13.9891229,-1.76599927 6.32337706,-0.456119012 2.33511739,5.47576723 C-0.876208574,10.284899 -0.738087017,16.7594499 2.54229971,21.3627433 L2.57683011,26.171875 C2.57683011,26.2841504 2.59409529,26.3964259 2.62862569,26.5087013 C2.80127761,27.1262163 3.40555939,27.4630427 3.97531077,27.2572044 L8.20528316,25.8163361 C9.32752074,26.2467253 10.4842887,26.4899888 11.6237914,26.5648391 L11.6065262,26.5835517 C14.5761395,28.9413361 18.4780732,29.6337013 22.0692334,28.3612462 L26.316471,29.8582522 C26.4200621,29.8956774 26.5409185,29.91439 26.6445097,29.91439 C27.2315262,29.91439 27.7149517,29.3904379 27.7149516,28.7542103 L27.7149516,23.9076534 C30.6500345,19.5850487 30.7363605,13.5970247 27.749482,9.14343189 C26.1092887,6.74822229 23.8648135,5.15765344 21.3958909,4.42786302 L21.3958909,4.42786302 Z M7.46287982,14.6075037 C6.66868094,14.6075037 6.04713398,13.933851 6.04713398,13.1104978 C6.04713398,12.2871445 6.66868094,11.6134918 7.46287982,11.6134918 C8.18801795,11.6134918 8.80956491,12.2871445 8.80956491,13.1104978 C8.80956491,13.9338511 8.18801795,14.6075037 7.46287982,14.6075037 Z M12.297134,14.6075037 C11.5029351,14.6075037 10.8813881,13.933851 10.8813881,13.1104978 C10.8813881,12.2871445 11.5029351,11.6134918 12.297134,11.6134918 C13.0222721,11.6134918 13.6438191,12.2871445 13.6438191,13.1104978 C13.6438191,13.9338511 13.0222721,14.6075037 12.297134,14.6075037 Z M15.7156423,13.1104978 C15.7156423,12.2871445 16.3371892,11.6134918 17.1313881,11.6134918 C17.8565262,11.6134918 18.4780732,12.2871445 18.4780732,13.1104978 C18.4780732,13.9338511 17.8565262,14.6075037 17.1313881,14.6075037 C16.3371892,14.6075037 15.7156423,13.933851 15.7156423,13.1104978 Z M25.2978246,22.3732223 L25.0388467,22.7100487 L25.0733771,26.2654379 L21.9829075,25.1426834 L21.6030732,25.3110966 C19.8247583,26.0221744 17.9428522,26.0783121 16.1990677,25.55436 C18.5298688,24.7684319 20.6534876,23.1965756 22.1900898,20.932354 C24.6072169,17.3208271 25.0043163,12.792384 23.5885705,8.91888099 L23.6058356,8.93759355 C24.3309738,9.4989708 25.0043163,10.2100487 25.5740677,11.0708271 C27.8530732,14.4765157 27.7322169,19.1172343 25.2978246,22.3732223 L25.2978246,22.3732223 Z" id="形状"></path>
            </g>
        </g>
    </g>
</svg>