<?xml version="1.0" encoding="UTF-8"?>
<svg width="30px" height="30px" viewBox="0 0 30 30" version="1.1" xmlns="http://www.w3.org/2000/svg" xmlns:xlink="http://www.w3.org/1999/xlink">
    <!-- Generator: Sketch 60.1 (88133) - https://sketch.com -->
    <title>编组 2</title>
    <desc>Created with Sketch.</desc>
    <g id="页面-1" stroke="none" stroke-width="1" fill="none" fill-rule="evenodd">
        <g id="23网络链接中" transform="translate(-22.000000, -466.000000)">
            <g id="编组-2" transform="translate(22.000000, 466.000000)">
                <circle id="椭圆形" fill="#FFB704" cx="15" cy="15" r="15"></circle>
                <g id="编组" transform="translate(7.000000, 6.000000)" fill="#FFFFFF" fill-rule="nonzero">
                    <path d="M1.83974185,17.9105808 L1.6734375,17.9105808 C0.753872283,17.9105808 0.0103940217,17.1671026 0.0103940217,16.2475374 L0.0103940217,9.83992867 C0.0103940217,8.92036345 0.753872283,8.17688519 1.6734375,8.17688519 L1.83974185,8.17688519 C2.75930707,8.17688519 3.50278533,8.92036345 3.50278533,9.83992867 L3.50278533,16.2475374 C3.50278533,17.15732 2.75930707,17.9105808 1.83974185,17.9105808 Z M7.57235054,17.9105808 L7.4060462,17.9105808 C6.48648098,17.9105808 5.74300272,17.1671026 5.74300272,16.2475374 L5.74300272,5.79971128 C5.74300272,4.88014606 6.48648098,4.1366678 7.4060462,4.1366678 L7.57235054,4.1366678 C8.49191576,4.1366678 9.23539402,4.88014606 9.23539402,5.79971128 L9.23539402,16.2475374 C9.23539402,17.15732 8.49191576,17.9105808 7.57235054,17.9105808 Z M13.3049592,17.9105808 L13.1386549,17.9105808 C12.2190897,17.9105808 11.4756114,17.1671026 11.4756114,16.2475374 L11.4756114,1.67145041 C11.4756114,0.75188519 12.2190897,0.00840692935 13.1386549,0.00840692935 L13.3049592,0.00840692935 C14.2245245,0.00840692935 14.9680027,0.75188519 14.9680027,1.67145041 L14.9680027,16.2475374 C14.9680027,17.15732 14.2245245,17.9105808 13.3049592,17.9105808 Z" id="形状"></path>
                </g>
            </g>
        </g>
    </g>
</svg>