<?xml version="1.0" encoding="UTF-8"?>
<svg width="20px" height="18px" viewBox="0 0 20 18" version="1.1" xmlns="http://www.w3.org/2000/svg" xmlns:xlink="http://www.w3.org/1999/xlink">
    <!-- Generator: Sketch 60.1 (88133) - https://sketch.com -->
    <title>编组</title>
    <desc>Created with Sketch.</desc>
    <g id="页面-1" stroke="none" stroke-width="1" fill="none" fill-rule="evenodd">
        <g id="40回复消息的的状态*自己" transform="translate(-429.000000, -716.000000)" fill="#0091FF" fill-rule="nonzero">
            <g id="编组" transform="translate(429.000000, 716.000000)">
                <path d="M18.4883362,1.31274205 C18.9796178,1.80397825 19.3447154,2.35320642 19.583447,2.96041746 C19.8221786,3.56764668 19.9416353,4.19193076 19.9416353,4.83325151 C19.9416353,5.47459045 19.8221786,6.09887452 19.583447,6.70608557 C19.3447154,7.31331479 18.9796178,7.86254296 18.4883362,8.35377007 L10.6491391,16.1316569 C10.1578938,16.6228841 9.5540828,17.0322551 8.83770614,17.3597338 C8.12132948,17.6872307 7.36400662,17.8782705 6.56573756,17.9328533 C5.76748668,17.9874361 4.95218095,17.8782705 4.11980218,17.6053565 C3.28744159,17.3324606 2.51646394,16.8412153 1.80690558,16.1316569 C1.11099293,15.4357352 0.626580483,14.6818306 0.353671885,13.8699249 C0.0807632866,13.0580192 -0.0283990618,12.2495318 0.026182476,11.4444626 C0.0807632866,10.6393753 0.268388516,9.8820524 0.589056165,9.17249405 C0.909721995,8.46293569 1.31567301,7.86254296 1.80690558,7.37129766 L8.76606847,0.473550428 C8.88887071,0.350740923 9.06967399,0.320038546 9.30847834,0.381443299 C9.5472645,0.442848052 9.72806778,0.534953363 9.85087002,0.657762868 C9.96003564,0.780570556 10.0487282,0.961373843 10.1169658,1.20016728 C10.1851852,1.43896253 10.1578938,1.619764 10.0350915,1.74257714 L3.09640175,8.61986582 C2.72797687,8.9882907 2.42095311,9.41811669 2.17533046,9.90934381 C1.929726,10.4005891 1.78643248,10.9259259 1.74550446,11.4853906 C1.70457645,12.0448554 1.78643248,12.6111384 1.99112711,13.1842397 C2.19580356,13.7573592 2.56422844,14.3099875 3.09640175,14.8421608 C3.57399225,15.3197513 4.10274732,15.6574847 4.68268514,15.8553428 C5.26260477,16.053201 5.83912435,16.1350752 6.41222568,16.1009473 C6.98534519,16.0668376 7.53115511,15.9406171 8.04967363,15.7222859 C8.56821033,15.5039728 9.01169112,15.2105856 9.380116,14.8421608 L17.1989309,7.084747 C17.5673558,6.71632211 17.8300333,6.33426062 17.9869452,5.93854434 C18.1437844,5.54282805 18.2188767,5.15051183 18.2121493,4.76161385 C18.2052401,4.37271587 18.1132384,3.99407262 17.9357807,3.62564774 C17.7583956,3.25720468 17.512773,2.9160712 17.1989309,2.60222913 C16.6121748,2.0291278 15.953781,1.75963199 15.2237495,1.7937417 C14.4937362,1.82785142 13.7602866,2.21333115 13.0234368,2.95019909 L5.96192658,9.9707631 C5.64808451,10.2846052 5.49457263,10.632557 5.50140912,11.0146366 C5.50822742,11.3966981 5.6344479,11.7105402 5.88007055,11.9561628 C6.18025782,12.2563683 6.52480954,12.3791705 6.91370752,12.3245877 C7.30258732,12.2700049 7.61984763,12.1199113 7.86547028,11.8742886 L14.2719868,5.50870016 C14.394789,5.38589793 14.5755923,5.35518828 14.8143966,5.41660757 C15.0531828,5.47800869 15.2339861,5.57010127 15.3568065,5.69292169 C15.4796087,5.81572392 15.5751195,5.99652721 15.6433572,6.23533155 C15.7115766,6.47411771 15.6842852,6.654921 15.5614829,6.77772323 L9.13449335,13.1433117 C8.64326624,13.6345388 8.17249405,13.9756723 7.72219495,14.1667121 C7.27189585,14.357752 6.84888816,14.4430444 6.45317188,14.4225713 C6.05745559,14.4020982 5.68903071,14.2963508 5.34789723,14.105311 C5.00676376,13.9142712 4.69290351,13.6823033 4.40635284,13.4093893 C4.17438499,13.1910762 3.9662903,12.9113438 3.78208695,12.5702104 C3.59786542,12.2290769 3.49211804,11.8538155 3.46482663,11.4444626 C3.43753523,11.0350915 3.50917289,10.5984472 3.67973963,10.1344934 C3.85030637,9.67055765 4.18120329,9.19978545 4.67244859,8.72219495 C4.91805306,8.47659048 5.1363843,8.25144094 5.32742413,8.0467463 C5.49117257,7.86936126 5.64468445,7.71243114 5.78795978,7.57599229 C5.93123511,7.43953526 6.00969109,7.36447935 6.02334588,7.35084274 L11.7339406,1.66069929 C12.2251859,1.1694649 12.7607593,0.783983345 13.3406971,0.504250986 C13.9206167,0.224520446 14.5107911,0.0641866216 15.1111838,0.0232509682 C15.7115766,-0.0176850488 16.3017509,0.0641866216 16.8816706,0.268868525 C17.4616084,0.473550428 17.9971818,0.821507664 18.4883362,1.31274205 L18.4883362,1.31274205 Z" id="路径"></path>
            </g>
        </g>
    </g>
</svg>
