<?xml version="1.0" encoding="UTF-8"?>
<svg width="60px" height="60px" viewBox="0 0 60 60" version="1.1" xmlns="http://www.w3.org/2000/svg" xmlns:xlink="http://www.w3.org/1999/xlink">
    <!-- Generator: Sketch 60.1 (88133) - https://sketch.com -->
    <title>编组备份</title>
    <desc>Created with Sketch.</desc>
    <g id="页面-1" stroke="none" stroke-width="1" fill="none" fill-rule="evenodd">
        <g id="11注册-昵称&amp;性别&amp;头像" transform="translate(-150.000000, -112.000000)" fill="#D8D8D8" fill-rule="nonzero">
            <g id="编组备份" transform="translate(150.000000, 112.000000)">
                <path d="M30,0 C13.4314575,0 0,13.4314575 0,30 C0,46.5685425 13.4314575,60 30,60 C46.5685425,60 60,46.5685425 60,30 C60,22.0435053 56.8392948,14.4128879 51.2132034,8.78679656 C45.5871121,3.16070521 37.9564947,0 30,0 Z M30,9.83999968 C35.32508,9.84138064 39.6409202,14.1590861 39.64,19.4841662 C39.6390795,24.8092464 35.321747,29.1254597 29.9966669,29.1249996 C24.6715867,29.1245395 20.355,24.8075802 20.355,19.4825 C20.355,16.9247168 21.3712464,14.4717302 23.1801067,12.6633388 C24.988967,10.8549474 27.4422169,9.83933684 30,9.83999968 Z M30,54.235 C16.725,54.235 8.895,45.835 9.69250002,39.795 C10.3525,34.795 20.0525,33.4525 30,33.4525 C39.9475,33.4525 49.645,34.79 50.3075,39.795 C51.1025,45.835 43.275,54.235 30,54.235 Z" id="形状"></path>
            </g>
        </g>
    </g>
</svg>