<?xml version="1.0" encoding="UTF-8"?>
<svg width="40px" height="40px" viewBox="0 0 40 40" version="1.1" xmlns="http://www.w3.org/2000/svg" xmlns:xlink="http://www.w3.org/1999/xlink">
    <!-- Generator: Sketch 60.1 (88133) - https://sketch.com -->
    <title>编组 4</title>
    <desc>Created with Sketch.</desc>
    <g id="页面-1" stroke="none" stroke-width="1" fill="none" fill-rule="evenodd">
        <g id="90我的群组" transform="translate(-94.000000, -336.000000)">
            <g id="编组-4" transform="translate(94.000000, 336.000000)">
                <circle id="椭圆形备份-2" fill="#8E8E93" cx="20" cy="20" r="20"></circle>
                <path d="M27.0736607,12.9263393 C23.171875,9.02455357 16.8258929,9.02455357 12.9263393,12.9263393 C9.02455357,16.828125 9.02455357,23.1741071 12.9263393,27.0736607 C16.828125,30.9754464 23.1741071,30.9754464 27.0736607,27.0736607 C30.9754464,23.1741071 30.9754464,16.8258929 27.0736607,12.9263393 Z M16.8794643,16.7901786 C17.4732143,16.7901786 17.9575893,17.2745536 17.9575893,17.8683036 C17.9575893,18.4620536 17.4732143,18.9464286 16.8794643,18.9464286 C16.2834821,18.9464286 15.8013316,18.4642857 15.8013316,17.8683036 C15.7991071,17.2745536 16.2834821,16.7901786 16.8794643,16.7901786 Z M23.1205357,24.5111607 L23.0625,24.4933036 C22.0959821,24.0558036 21.0602679,23.8325893 19.9866071,23.8325893 C18.8772321,23.8325893 17.8258929,24.0580357 16.8638393,24.4977679 L16.8058036,24.515625 C16.7700893,24.5245536 16.7209821,24.5401786 16.6607143,24.5401786 C16.3080357,24.5401786 16.0200893,24.2522321 16.0200893,23.9017857 C16.0200893,23.734375 16.0982143,23.5669643 16.2276786,23.4397321 L16.21875,23.4017857 L16.3816964,23.328125 C17.5290179,22.8080357 18.7767857,22.5357143 19.9910714,22.5357143 C21.2276786,22.5357143 22.4397321,22.8013393 23.609375,23.3348214 C23.8147321,23.4486607 23.9441964,23.6629464 23.9441964,23.8973214 C23.9441964,24.3102679 23.5691964,24.6495536 23.1205357,24.5111607 L23.1205357,24.5111607 Z M23.0825893,18.9486607 C22.4888393,18.9486607 22.0044643,18.4642857 22.0044643,17.8705357 C22.0044643,17.2745536 22.4888393,16.7924107 23.0825893,16.7924107 C23.6763393,16.7924107 24.1607143,17.2745536 24.1607143,17.8705357 C24.1607143,18.4642857 23.6763393,18.9486607 23.0825893,18.9486607 Z M28.6878125,25.9003571 L28.6878125,25.8603571 L28.6778125,25.9003571 L28.6878125,25.9003571 Z" id="形状" fill="#FFFFFF" fill-rule="nonzero"></path>
            </g>
        </g>
    </g>
</svg>