<svg xmlns="http://www.w3.org/2000/svg" viewBox="0 0 512 512">
  <defs>
    <style>
      .cls-1 {
        fill: #0cb208;
      }

      .cls-2 {
        fill: #eeefee;
      }
    </style>
  </defs>
  <g id="图层_2" data-name="图层 2">
    <g id="图层_1-2" data-name="图层 1">
      <g id="Circle_Grid" data-name="Circle Grid">
        <circle class="cls-1" cx="256" cy="256" r="256"/>
      </g>
      <g id="icon">
        <path class="cls-2" d="M231.324,280.4c35.16,35.16,69.62,49.424,82.032,37.012l17.044-17.04a30.064,30.064,0,0,1,42.516,0l38.264,38.264a30.064,30.064,0,0,1,0,42.516l-29.812,29.812c-28.168,28.168-111.48-9.432-191.328-89.276-39.904-39.924-66.076-77.528-82.992-112.888s-20.344-64.364-6.268-78.44l29.812-29.812a30.064,30.064,0,0,1,42.516,0L211.372,138.8a30.064,30.064,0,0,1,0,42.516L194.316,198.4c-12.412,12.4,1.848,46.856,37.008,82Z"/>
      </g>
    </g>
  </g>
</svg>
