<svg xmlns="http://www.w3.org/2000/svg" viewBox="0 0 512 512">
  <defs>
    <style>
      .cls-1 {
        fill: #dc4b4d;
      }

      .cls-2 {
        fill: #eeefee;
      }
    </style>
  </defs>
  <g id="图层_2" data-name="图层 2">
    <g id="图层_1-2" data-name="图层 1">
      <g id="Circle_Grid" data-name="Circle Grid">
        <circle class="cls-1" cx="256" cy="256" r="256"/>
      </g>
      <g id="icon">
        <path class="cls-2" d="M256.19073,221.3003c-49.72376,0-84.17683,14.28072-84.17683,31.834l-.00282,24.101a30.064,30.064,0,0,1-30.06335,30.06335H87.83425A30.064,30.064,0,0,1,57.77091,277.2353V235.07475c0-39.83557,85.4977-72.15883,198.417-72.16166,56.44692.01415,101.54336,8.09779,138.50808,21.13967s59.8976,31.12683,59.8976,51.03331V277.2466A30.064,30.064,0,0,1,424.53023,307.31l-54.105.00849a30.064,30.064,0,0,1-30.06334-30.06335l-.0198-24.14062c.00849-17.54474-34.43894-31.82546-84.15135-31.81414Z"/>
      </g>
    </g>
  </g>
</svg>
