<?xml version="1.0" encoding="UTF-8"?>
<svg width="30px" height="30px" viewBox="0 0 30 30" version="1.1" xmlns="http://www.w3.org/2000/svg" xmlns:xlink="http://www.w3.org/1999/xlink">
    <!-- Generator: Sketch 60.1 (88133) - https://sketch.com -->
    <title>聊天选中</title>
    <desc>Created with Sketch.</desc>
    <g id="页面-1" stroke="none" stroke-width="1" fill="none" fill-rule="evenodd">
        <g id="34消息的右键-自己的消息" transform="translate(-22.000000, -122.000000)" fill="#0091FF" fill-rule="nonzero">
            <g id="聊天选中" transform="translate(22.000000, 122.000000)">
                <path d="M28.7728745,9.17037958 C27.2575994,5.56916232 24.3831747,2.70300989 20.7671498,1.1876945 C18.931681,0.418834521 16.959637,0.0248653593 14.9681554,0.029153237 L14.9025347,0.029153237 C10.9276685,0.0369205503 7.12068622,1.62467434 4.32822864,4.43934678 C2.96831347,5.80489923 1.88832808,7.42061942 1.14843732,9.19649726 C-0.528596305,13.2273191 -0.360941553,17.7845869 1.60778218,21.6826182 L1.60778218,26.7457188 C1.60778218,27.5926781 2.29586203,28.2792002 3.14518128,28.2792002 L8.22609785,28.2792002 C10.297824,29.3192924 12.5839452,29.8665856 14.9044096,29.8779921 L14.9756549,29.8779921 C16.9558091,29.8808878 18.9167978,29.4921633 20.7446513,28.7343942 C22.5267445,27.9960418 24.1469151,26.9187671 25.5143383,25.5629605 C26.8875241,24.2097468 27.9828258,22.6034817 28.7391267,20.8337933 C29.526575,18.9943618 29.9277987,17.0392662 29.939201,15.0207419 C29.9481473,13.0125764 29.5515718,11.0230694 28.7728745,9.17037958 Z M8.28609393,16.5523578 C7.3986996,16.5523578 6.67932437,15.8365616 6.67932437,14.9535821 C6.67932437,14.0706027 7.3986996,13.3548065 8.28609393,13.3548065 C9.17348822,13.3548065 9.89286342,14.0706027 9.89286342,14.9535821 C9.89286342,15.8365615 9.17348822,16.5523578 8.28609393,16.5523578 L8.28609393,16.5523578 Z M14.9681554,16.5523578 C14.0807611,16.5523578 13.3613858,15.8365616 13.3613858,14.9535821 C13.3613858,14.0706027 14.0807611,13.3548065 14.9681554,13.3548065 C15.8555497,13.3548065 16.5749249,14.0706027 16.5749249,14.9535821 C16.5749249,15.8365615 15.8555497,16.5523578 14.9681554,16.5523578 L14.9681554,16.5523578 Z M21.6520918,16.5523578 C20.7646975,16.5523578 20.0453222,15.8365616 20.0453222,14.9535821 C20.0453222,14.0706027 20.7646975,13.3548065 21.6520918,13.3548065 C22.5394861,13.3548065 23.2588613,14.0706027 23.2588613,14.9535821 C23.2588613,15.8365615 22.5394861,16.5523578 21.6520918,16.5523578 L21.6520918,16.5523578 Z" id="形状"></path>
            </g>
        </g>
    </g>
</svg>
