<?xml version="1.0" encoding="UTF-8"?>
<svg width="18px" height="18px" viewBox="0 0 18 18" version="1.1" xmlns="http://www.w3.org/2000/svg" xmlns:xlink="http://www.w3.org/1999/xlink">
    <!-- Generator: Sketch 60.1 (88133) - https://sketch.com -->
    <title>形状 2</title>
    <desc>Created with Sketch.</desc>
    <g id="页面-1" stroke="none" stroke-width="1" fill="none" fill-rule="evenodd">
        <g id="74a群发言间隔备份" transform="translate(-749.000000, -277.000000)" fill="#CCCCCC" fill-rule="nonzero">
            <g id="编组-6" transform="translate(749.000000, 245.000000)">
                <g id="形状-2" transform="translate(0.000000, 32.000000)">
                    <path d="M8.99987695,0 C4.02939844,0 0,4.02941602 0,8.99987695 C0,13.9703379 4.02941602,18 8.99987695,18 C13.9703379,18 18,13.970584 18,8.99985937 C18,4.02913477 13.970584,0 8.99987695,0 Z M8.99987695,16.6497539 C4.77508008,16.6497539 1.35,13.2249199 1.35,8.99987695 C1.35,4.77483398 4.77508008,1.35 8.99985937,1.35 C13.2246387,1.35 16.65,4.77508008 16.65,8.99985937 C16.65,13.2246387 13.2249199,16.6497539 8.99985937,16.6497539 L8.99987695,16.6497539 Z" id="形状"></path>
                </g>
            </g>
        </g>
    </g>
</svg>