<?xml version="1.0" encoding="UTF-8"?>
<svg width="18px" height="18px" viewBox="0 0 18 18" version="1.1" xmlns="http://www.w3.org/2000/svg" xmlns:xlink="http://www.w3.org/1999/xlink">
    <!-- Generator: Sketch 60.1 (88133) - https://sketch.com -->
    <title>编组 18备份</title>
    <desc>Created with Sketch.</desc>
    <g id="页面-1" stroke="none" stroke-width="1" fill="none" fill-rule="evenodd">
        <g id="74a群发言间隔备份" transform="translate(-749.000000, -245.000000)">
            <g id="编组-6" transform="translate(749.000000, 245.000000)">
                <g id="编组-18备份">
                    <circle id="椭圆形" fill="#0091FF" cx="9" cy="9" r="9"></circle>
                    <path d="M12.8671248,5.81887431 L7.91724784,10.7687688 L5.25416191,8.1056829 C5.0990571,7.92005117 4.85241126,7.8379417 4.61699127,7.89356602 C4.38157128,7.94919034 4.19775776,8.13300744 4.14213804,8.36842852 C4.08651832,8.6038496 4.16863261,8.85049384 4.35426737,9.00559501 L7.50301933,12.1548919 C7.7550255,12.3947915 8.15092526,12.3947915 8.40293144,12.1548919 L13.8028963,6.75490947 C13.9701029,6.58770289 14.0354045,6.343994 13.9742026,6.11558556 C13.9130008,5.88717713 13.7345935,5.70876983 13.506185,5.64756798 C13.2777766,5.58636613 13.0340677,5.65166773 12.8668611,5.81887431 L12.8671248,5.81887431 Z" id="路径" fill="#FFFFFF" fill-rule="nonzero"></path>
                </g>
            </g>
        </g>
    </g>
</svg>