<?xml version="1.0" encoding="UTF-8"?>
<svg width="16px" height="16px" viewBox="0 0 16 16" version="1.1" xmlns="http://www.w3.org/2000/svg" xmlns:xlink="http://www.w3.org/1999/xlink">
    <!-- Generator: Sketch 60.1 (88133) - https://sketch.com -->
    <title>编组备份</title>
    <desc>Created with Sketch.</desc>
    <g id="页面-1" stroke="none" stroke-width="1" fill="none" fill-rule="evenodd">
        <g id="47右键弹窗-关闭消息声音提示状态" transform="translate(-346.000000, -184.000000)" fill-rule="nonzero">
            <g id="编组备份" transform="translate(346.000000, 184.000000)">
                <path d="M0,8 C0,12.418278 3.581722,16 8,16 C12.418278,16 16,12.418278 16,8 C16,3.581722 12.418278,0 8,0 C3.581722,0 0,3.581722 0,8 Z" id="路径" fill="#CCCCCC"></path>
                <path d="M8.15946667,11.7333333 C8.03066667,11.7333333 7.9024,11.6968 7.79226667,11.6248 L4.94773333,9.7728 L3.84,9.7728 C3.48693333,9.7728 3.2,9.50533333 3.2,9.17653333 L3.2,7.09013333 C3.2,6.76133333 3.48693333,6.49386666 3.84,6.49386667 L4.9472,6.49386667 L5.10346667,6.39866667 L7.79226667,4.64186667 C7.9888,4.5136 8.24293334,4.49786667 8.4552,4.60106667 C8.668,4.704 8.8,4.90666667 8.8,5.12986667 L8.8,11.1368 C8.8,11.36 8.668,11.5626667 8.4552,11.6656 C8.36186667,11.7109333 8.26053333,11.7333333 8.15946667,11.7333333 L8.15946667,11.7333333 Z M11.8293333,8.24746667 L12.3669333,7.71093333 C12.4978757,7.58079123 12.5371849,7.38442003 12.4664282,7.21390215 C12.3956715,7.04338427 12.2288804,6.93253481 12.0442667,6.93332904 C11.9226667,6.93332904 11.8061333,6.98133333 11.7216,7.06666667 L11.184,7.60346667 L10.6458667,7.06666667 C10.5610667,6.98133334 10.4445333,6.93332904 10.3232,6.93332904 C10.1387919,6.93295254 9.97235139,7.04380528 9.90162416,7.21411131 C9.83089693,7.38441734 9.86984156,7.58056549 10.0002667,7.71093333 L10.5384,8.24746667 L10.0002667,8.78453333 C9.86932433,8.91467542 9.83001506,9.11104662 9.9007718,9.28156451 C9.97152853,9.45208239 10.1383196,9.56293185 10.3229333,9.56213761 C10.4445333,9.56213761 10.5610667,9.51413333 10.6456,9.4288 L11.184,8.892 L11.7216,9.4288 C11.8064,9.51413333 11.9229333,9.56213761 12.0442667,9.56213761 C12.2286747,9.56251412 12.3951153,9.45166137 12.4658425,9.28135535 C12.5365697,9.11104932 12.4976251,8.91490117 12.3672,8.78453333 L11.8293333,8.24746667 L11.8293333,8.24746667 Z" id="形状" fill="#FFFFFF"></path>
            </g>
        </g>
    </g>
</svg>