<?xml version="1.0" encoding="UTF-8"?>
<svg width="40px" height="40px" viewBox="0 0 40 40" version="1.1" xmlns="http://www.w3.org/2000/svg" xmlns:xlink="http://www.w3.org/1999/xlink">
    <!-- Generator: Sketch 60.1 (88133) - https://sketch.com -->
    <title>编组 5</title>
    <desc>Created with Sketch.</desc>
    <g id="页面-1" stroke="none" stroke-width="1" fill="none" fill-rule="evenodd">
        <g id="90我的群组" transform="translate(-94.000000, -276.000000)">
            <g id="编组-5" transform="translate(94.000000, 276.000000)">
                <g id="编组-3" fill="#33AADC">
                    <circle id="椭圆形备份-2" cx="20" cy="20" r="20"></circle>
                </g>
                <g id="编组备份-2" transform="translate(10.000000, 10.000000)" fill="#FFFFFF" fill-rule="nonzero">
                    <path d="M10.7067233,0.188258571 C11.0353383,0.357113812 11.3007993,0.635557243 11.4624308,0.978858966 L13.6374983,5.58379874 L18.5003584,6.32184155 C19.1278155,6.41735366 19.6490366,6.87655769 19.8450485,7.50653462 C20.0410603,8.13651154 19.8779024,8.82811316 19.4241199,9.29078645 L15.9046209,12.8758853 L16.7352569,17.9370697 C16.8415017,18.5896614 16.5843227,19.2487425 16.0716364,19.637752 C15.5589501,20.0267615 14.8794546,20.0783981 14.3182773,19.7709942 L9.96921272,17.3835376 L5.62014812,19.7732307 C5.05876048,20.0824236 4.37796438,20.0314591 3.86451218,19.6418035 C3.35105999,19.2521479 3.09419074,18.5915241 3.20209816,17.9381879 L4.0338046,12.8770035 L0.514305592,9.2919047 C0.0605230854,8.82923141 -0.102634892,8.13762979 0.0933769647,7.50765285 C0.289388821,6.87767592 0.810609994,6.41847188 1.43806704,6.32295978 L6.30092711,5.58491699 L8.47492423,0.979977218 C8.67016292,0.56530313 9.01528322,0.24879957 9.4341653,0.100274654 C9.85304738,-0.0482502611 10.3112795,-0.0165949904 10.7077937,0.188258571 L10.7067233,0.188258571 Z" id="路径"></path>
                </g>
            </g>
        </g>
    </g>
</svg>