<?xml version="1.0" encoding="UTF-8"?>
<svg width="20px" height="20px" viewBox="0 0 20 20" version="1.1" xmlns="http://www.w3.org/2000/svg" xmlns:xlink="http://www.w3.org/1999/xlink">
    <!-- Generator: Sketch 60.1 (88133) - https://sketch.com -->
    <title>编组</title>
    <desc>Created with Sketch.</desc>
    <g id="页面-1" stroke="none" stroke-width="1" fill="none" fill-rule="evenodd">
        <g id="90我的群组" transform="translate(-368.000000, -50.000000)" fill="#0091FF" fill-rule="nonzero">
            <g id="编组" transform="translate(368.000000, 50.000000)">
                <path d="M18.6426667,0.24 C18.842259,0.0406457959 19.1330442,-0.0370838187 19.4054862,0.0360911503 C19.6779282,0.109266119 19.8906366,0.322228653 19.9634862,0.594757825 C20.0363358,0.867286997 19.958259,1.15797914 19.7586667,1.35733334 L8.6,12.516 C8.40221572,12.7229464 8.10788988,12.8065904 7.83083177,12.7345888 C7.55377367,12.6625872 7.33741283,12.4462263 7.26541121,12.1691682 C7.19340959,11.8921101 7.27705362,11.5977843 7.484,11.4 L18.644,0.24 L18.6426667,0.24 Z M18.412,8.42666666 C18.4119556,8.14463545 18.562392,7.88400888 18.8066308,7.74298047 C19.0508696,7.60195205 19.351797,7.60195205 19.5960358,7.74298047 C19.8402746,7.88400888 19.9906667,8.14463545 19.9906667,8.42666666 L19.9906667,17.1066667 C19.9906667,18.7046105 18.6952772,20 17.0973333,20 L2.89333334,20 C1.29538946,20 0,18.7046105 0,17.1066667 L0,2.90266666 C0,1.30472279 1.29538947,0.00933333984 2.89333334,0.00933333984 L11.3106667,0.00933333984 C11.7465549,0.00933333984 12.0998758,0.362778392 12.0998758,0.79866667 C12.0998758,1.23455495 11.7465549,1.58793143 11.3106667,1.588 L2.89333334,1.588 C2.54466206,1.58799999 2.21027145,1.72650912 1.96372362,1.97305694 C1.71717579,2.21960477 1.57866666,2.55399538 1.57866666,2.90266666 L1.57866666,17.1066667 C1.57866666,17.8333333 2.16666666,18.4213333 2.89333334,18.4213333 L17.0973333,18.4213333 C17.4460046,18.4213333 17.7803952,18.2828242 18.0269431,18.0362764 C18.2734909,17.7897286 18.412,17.4553379 18.412,17.1066667 L18.412,8.42666666 Z" id="形状"></path>
            </g>
        </g>
    </g>
</svg>