<?xml version="1.0" encoding="UTF-8"?>
<svg width="20px" height="20px" viewBox="0 0 20 20" version="1.1" xmlns="http://www.w3.org/2000/svg" xmlns:xlink="http://www.w3.org/1999/xlink">
    <!-- Generator: Sketch 60.1 (88133) - https://sketch.com -->
    <title>编组</title>
    <desc>Created with Sketch.</desc>
    <g id="页面-1" stroke="none" stroke-width="1" fill="none" fill-rule="evenodd">
        <g id="40回复消息的的状态*自己" transform="translate(-890.000000, -715.000000)" fill="#CCCCCC" fill-rule="nonzero">
            <g id="编组" transform="translate(890.000000, 715.000000)">
                <path d="M9.97340426,19.9468085 C4.47348737,19.9468085 0,15.4733211 0,9.97340426 C0,4.47348737 4.47348737,0 9.97340426,0 C15.4733211,0 19.9468085,4.47348737 19.9468085,9.97340426 C19.9468085,15.4733211 15.4733211,19.9468085 9.97340426,19.9468085 Z M9.97340426,1.32978723 C5.20694814,1.32978723 1.32978723,5.20694814 1.32978723,9.97340426 C1.32978723,14.7398604 5.20694814,18.6170213 9.97340426,18.6170213 C14.7398604,18.6170213 18.6170213,14.7398604 18.6170213,9.97340426 C18.6170213,5.20694814 14.7398604,1.32978723 9.97340426,1.32978723 Z" id="形状"></path>
                <path d="M9.97340426,15.9574468 C8.35272606,15.9574468 6.83385971,15.3195645 5.69938497,14.1601562 C4.59607713,13.0360705 3.9893617,11.548371 3.9893617,9.97340426 C3.9893617,9.60563497 4.28648604,9.30851064 4.65425532,9.30851064 L15.2925532,9.30851064 C15.6603225,9.30851064 15.9574468,9.60563497 15.9574468,9.97340426 C15.9574468,11.548371 15.3507314,13.0360705 14.2474235,14.1601562 C13.1129488,15.3195645 11.5940824,15.9574468 9.97340426,15.9574468 Z M6.64893617,13.231383 C7.53199801,14.1331449 8.71218418,14.6276596 9.97340426,14.6276596 C11.2346243,14.6276596 12.4148105,14.1310672 13.2978723,13.231383 C13.9980884,12.5166223 14.4406582,11.6127826 14.5798703,10.6382979 L5.36693816,10.6382979 C5.50407247,11.6127826 5.94872008,12.5145445 6.64893617,13.231383 Z M6.98138298,7.9787234 C6.43076795,7.9787234 5.98404255,7.53199801 5.98404255,6.98138298 C5.98404255,6.43076795 6.43076795,5.98404255 6.98138298,5.98404255 C7.53199801,5.98404255 7.9787234,6.43076795 7.9787234,6.98138298 C7.9787234,7.53199801 7.53199801,7.9787234 6.98138298,7.9787234 Z M12.9654255,7.9787234 C12.4148105,7.9787234 11.9680851,7.53199801 11.9680851,6.98138298 C11.9680851,6.43076795 12.4148105,5.98404255 12.9654255,5.98404255 C13.5160406,5.98404255 13.962766,6.43076795 13.962766,6.98138298 C13.962766,7.53199801 13.5160406,7.9787234 12.9654255,7.9787234 Z" id="形状"></path>
            </g>
        </g>
    </g>
</svg>