<svg width="14" height="16" xmlns="http://www.w3.org/2000/svg">
    <path d="M13.18 14.4H8.53c0 .883-.694 1.6-1.55 1.6-.856 0-1.55-.717-1.55-1.6H.777a.788.788 0 0 1-.775-.8c0-.442.35-.8.776-.8h.774V7.2c0-2.533 1.64-4.648 3.877-5.34V1.6c0-.883.694-1.6 1.55-1.6.856 0 1.55.717 1.55 1.6v.26c2.236.692 3.877 2.807 3.877 5.34v5.6h.774c.43 0 .776.358.776.8 0 .442-.347.8-.776.8zM4.653 7.2c0-.442-.348-.8-.775-.8a.786.786 0 0 0-.775.8v3.2c0 .442.347.8.775.8h.001a.787.787 0 0 0 .774-.8V7.2z" fill="#FF9B35" fill-rule="nonzero"/>
</svg>
