<?xml version="1.0" encoding="UTF-8"?>
<svg width="40px" height="40px" viewBox="0 0 40 40" version="1.1" xmlns="http://www.w3.org/2000/svg" xmlns:xlink="http://www.w3.org/1999/xlink">
    <!-- Generator: Sketch 60.1 (88133) - https://sketch.com -->
    <title>编组 4备份 2</title>
    <desc>Created with Sketch.</desc>
    <g id="页面-1" stroke="none" stroke-width="1" fill="none" fill-rule="evenodd">
        <g id="90我的群组" transform="translate(-94.000000, -156.000000)">
            <g id="编组-4备份-2" transform="translate(94.000000, 156.000000)">
                <g id="编组-4备份">
                    <circle id="椭圆形备份" fill="#61CF55" cx="20" cy="20" r="20"></circle>
                    <g id="编组" transform="translate(9.090909, 10.000000)" fill="#FFFFFF" fill-rule="nonzero">
                        <path d="M15.5606479,2.95190868 C15.1462833,2.49033184 14.6816926,2.0786552 14.1543194,1.69192863 C10.1739076,-1.17733285 4.59881968,-0.304079341 1.69826719,3.65051148 C-0.6372426,6.85659932 -0.536790558,11.1729666 1.84894525,14.2418289 L1.87405826,17.4479167 C1.87405826,17.522767 1.88661476,17.5976173 1.91172777,17.6724676 C2.03729281,18.0841442 2.47677047,18.3086951 2.89113511,18.1714696 L5.96747866,17.2108907 C6.78365145,17.4978169 7.62493723,17.6599925 8.45366651,17.7098927 L8.44110999,17.7223678 C10.6008287,19.2942241 13.4385987,19.7558009 16.0503516,18.9074975 L19.1392516,19.9055015 C19.2145907,19.9304516 19.3024862,19.9429266 19.3778252,19.9429266 C19.8047464,19.9429266 20.1563285,19.5936253 20.1563285,19.1694735 L20.1563285,15.9384356 C22.2909342,13.0566991 22.3537167,9.06468313 20.1814415,6.09562126 C18.9885736,4.49881486 17.356228,3.43843563 15.5606479,2.95190868 L15.5606479,2.95190868 Z M5.42754896,9.73833582 C4.84994977,9.73833582 4.39791562,9.28923402 4.39791562,8.74033184 C4.39791562,8.19142966 4.84994977,7.74232784 5.42754896,7.74232784 C5.95492214,7.74232784 6.4069563,8.19142964 6.4069563,8.74033184 C6.4069563,9.28923405 5.95492214,9.73833582 5.42754896,9.73833582 Z M8.94337017,9.73833582 C8.36577099,9.73833582 7.91373681,9.28923402 7.91373681,8.74033184 C7.91373681,8.19142966 8.36577096,7.74232784 8.94337017,7.74232784 C9.47074335,7.74232784 9.92277751,8.19142964 9.92277751,8.74033184 C9.92277751,9.28923405 9.47074335,9.73833582 8.94337017,9.73833582 Z M11.429558,8.74033184 C11.429558,8.19142964 11.8815922,7.74232784 12.4591914,7.74232784 C12.9865645,7.74232784 13.4385987,8.19142964 13.4385987,8.74033184 C13.4385987,9.28923405 12.9865645,9.73833582 12.4591914,9.73833582 C11.8815922,9.73833582 11.429558,9.28923402 11.429558,8.74033184 Z M18.3984179,14.9154815 L18.2100703,15.1400324 L18.2351833,17.5102919 L15.9875691,16.7617889 L15.711326,16.8740644 C14.418006,17.3481163 13.049347,17.3855414 11.7811401,17.03624 C13.4762682,16.5122879 15.0207182,15.4643837 16.1382471,13.9549027 C17.8961577,11.5472181 18.1849573,8.52825599 17.155324,5.94592066 L17.1678805,5.9583957 C17.6952536,6.3326472 18.1849573,6.8066991 18.5993219,7.38055139 C20.2567805,9.65101048 20.168885,12.7448228 18.3984179,14.9154815 L18.3984179,14.9154815 Z" id="形状"></path>
                    </g>
                </g>
            </g>
        </g>
    </g>
</svg>