<?xml version="1.0" encoding="UTF-8"?>
<svg width="40px" height="40px" viewBox="0 0 40 40" version="1.1" xmlns="http://www.w3.org/2000/svg" xmlns:xlink="http://www.w3.org/1999/xlink">
    <!-- Generator: Sketch 60.1 (88133) - https://sketch.com -->
    <title>编组 3备份 2</title>
    <desc>Created with Sketch.</desc>
    <g id="页面-1" stroke="none" stroke-width="1" fill="none" fill-rule="evenodd">
        <g id="90我的群组" transform="translate(-94.000000, -216.000000)">
            <g id="编组-3备份-2" transform="translate(94.000000, 216.000000)">
                <g id="编组-3备份">
                    <circle id="椭圆形备份-2" fill="#5A9FF5" cx="20" cy="20" r="20"></circle>
                    <g id="编组" transform="translate(10.000000, 10.000000)" fill="#FFFFFF" fill-rule="nonzero">
                        <path d="M19.1428571,9 L11,0.857142857 C10.4285714,0.285714286 9.57142857,0 8.71428571,0 L3.14285714,0.714285714 C1.85714286,0.857142857 0.857142857,1.85714286 0.714285714,3.14285714 L0,8.71428571 C0,9.57142857 0.285714286,10.4285714 0.857142857,11 L9,19.1428571 C10.1428571,20.2857143 11.8571429,20.2857143 13,19.1428571 L19,13.1428571 C20.2857143,12 20.2857143,10.1428571 19.1428571,9 Z M8,8 C6.85714286,9.14285714 5.14285714,9.14285714 4,8 C2.85714286,6.85714286 2.85714286,5.14285714 4,4 C5.14285714,2.85714286 6.85714286,2.85714286 8,4 C9.14285714,5.14285714 9.14285714,6.85714286 8,8 Z" id="形状"></path>
                    </g>
                </g>
            </g>
        </g>
    </g>
</svg>