<?xml version="1.0" encoding="UTF-8"?>
<svg width="34px" height="34px" viewBox="0 0 34 34" version="1.1" xmlns="http://www.w3.org/2000/svg" xmlns:xlink="http://www.w3.org/1999/xlink">
    <title>编组</title>
    <g id="全部" stroke="none" stroke-width="1" fill="none" fill-rule="evenodd">
        <g id="编组" fill="#F9B057" fill-rule="nonzero">
            <path d="M16.9236816,0 C7.58146578,0 0.0099104225,7.60941313 0.0099104225,16.99834 C0.0099104225,26.3872669 7.58146578,33.99668 16.9236816,33.99668 C26.2658974,33.99668 33.8374527,26.3872669 33.8374527,16.99834 C33.8374527,7.60941313 26.2658973,0 16.9236816,0 Z M22.2587871,22.8846792 C22.2257524,23.2963578 21.8755845,23.6051167 21.4659541,23.6051167 L12.3913195,23.6051167 C11.9420474,23.6051167 11.5786656,23.216678 11.6150038,22.7585197 C11.6480385,22.3468411 11.9982064,22.0380822 12.4078368,22.0380822 L21.479168,22.0380822 C21.9317435,22.0414022 22.2951253,22.4265209 22.2587871,22.8846792 L22.2587871,22.8846792 Z M24.0360545,14.3390294 L22.6684175,19.83693 C22.6684175,20.3548482 22.2488767,20.7764867 21.7335352,20.7764867 L12.1435591,20.7764867 C11.6282177,20.7764867 11.2086768,20.3548482 11.2086768,19.83693 L9.81130866,14.3456694 C9.66595595,13.7746314 10.2671876,13.2998731 10.7858326,13.5787521 L13.6003898,15.0959867 L16.309236,9.41880677 C16.5536928,8.90752858 17.2804564,8.9042086 17.5249133,9.41880677 L20.2502768,15.0926667 L23.0549236,13.5787521 C23.576872,13.2965531 24.1781037,13.7679914 24.0360545,14.3390294 Z" id="形状"></path>
        </g>
    </g>
</svg>