<svg width="14" height="16" xmlns="http://www.w3.org/2000/svg">
    <path d="M6.94 12.327a6.242 6.242 0 0 0 5.242-2.993 8.205 8.205 0 0 0 .561-6.448 1.159 1.159 0 0 0-.595-.72 1.144 1.144 0 0 0-.93-.043l-1.814.71A13.221 13.221 0 0 0 7.174.147a.779.779 0 0 0-.912 0A13.247 13.247 0 0 0 4.02 2.833l-1.805-.72a1.144 1.144 0 0 0-.94.035c-.293.145-.512.41-.6.727a8.205 8.205 0 0 0 .56 6.448 6.213 6.213 0 0 0 5.482 2.993l.224.011zm3.98 3.39c.181-.008.36-.04.532-.096.689-.14 1.893-.806 2.09-3.547a.427.427 0 0 0-.095-.31.266.266 0 0 0-.224-.099c-.922 0-3.52.382-4.208 1.538a1.31 1.31 0 0 0 0 1.343 2.26 2.26 0 0 0 1.904 1.172v-.001h.001zM.32 11.72a.292.292 0 0 0-.209.141.427.427 0 0 0-.096.311c.198 2.74 1.388 3.403 2.091 3.546.14.016.281.016.422 0A2.252 2.252 0 0 0 4.533 14.6a1.31 1.31 0 0 0 0-1.342C3.781 12.104 1.19 11.72.32 11.72z" fill="#0091FF" fill-rule="nonzero"/>
</svg>
