<?xml version="1.0" encoding="UTF-8"?>
<svg width="20px" height="14px" viewBox="0 0 20 14" version="1.1" xmlns="http://www.w3.org/2000/svg" xmlns:xlink="http://www.w3.org/1999/xlink">
    <!-- Generator: Sketch 60.1 (88133) - https://sketch.com -->
    <title>编组备份 2</title>
    <desc>Created with Sketch.</desc>
    <g id="页面-1" stroke="none" stroke-width="1" fill="none" fill-rule="evenodd">
        <g id="3登录-输入密码的状态-眼睛默认关闭" transform="translate(-360.000000, -169.000000)" fill="#CCCCCC" fill-rule="nonzero">
            <g id="编组备份-2" transform="translate(360.000000, 169.000000)">
                <path d="M13.8270513,6.42679901 L17.4142308,4.08883375 C17.5455128,4.00372208 17.665,3.90355666 17.7721795,3.79354839 C18.4829198,4.54865926 19.1438258,5.3614117 19.7496154,6.22531017 C20.0485223,6.64792489 20.0485223,7.24785675 19.7496154,7.67047146 C16.8167949,11.8206783 13.5614103,13.8957816 9.98705129,13.8957816 C8.1798718,13.8957816 6.45423077,13.365426 4.81064102,12.3047146 L7.31217948,10.6736973 C8.62494214,11.7690934 10.3879866,11.8815801 11.8016969,10.9601399 C13.2154071,10.0386997 14.0107688,8.25867295 13.8270513,6.427378 L13.8270513,6.42679901 Z M11.3603846,2.68651778 C10.173055,2.11457381 8.81655167,2.20684028 7.69862584,2.93558281 C6.58070001,3.66432535 5.83171006,4.94456722 5.67679487,6.39148056 L2.03935898,8.7624483 C1.82608768,8.90118607 1.63673115,9.08222078 1.48038462,9.29685691 C1.04020436,8.77606057 0.620977964,8.23319137 0.223974363,7.66989247 C-0.0746596049,7.24738652 -0.0746596049,6.64781613 0.223974363,6.22531017 C3.15782052,2.07510339 6.41217948,0 9.98705129,0 C11.3819231,0 12.7285897,0.316129032 14.0265385,0.948387097 L11.3603846,2.68651778 Z" id="形状"></path>
                <path d="M1.40734263,10.4218068 L16.5072728,0.578961486 C17.0994269,0.192967549 17.5664441,0.334251135 17.9083244,1.00281225 L17.9083244,1.00281225 C18.2502048,1.67137335 18.1250679,2.19865087 17.5329138,2.5846448 L2.43298365,12.4274901 C1.84082954,12.8134841 1.3738123,12.6722005 1.03193196,12.0036394 L1.03193196,12.0036394 C0.690051615,11.3350783 0.815188506,10.8078007 1.40734263,10.4218068 Z" id="路径"></path>
            </g>
        </g>
    </g>
</svg>