<?xml version="1.0" encoding="UTF-8"?>
<svg width="20px" height="16px" viewBox="0 0 20 16" version="1.1" xmlns="http://www.w3.org/2000/svg" xmlns:xlink="http://www.w3.org/1999/xlink">
    <!-- Generator: Sketch 60.1 (88133) - https://sketch.com -->
    <title>编组</title>
    <desc>Created with Sketch.</desc>
    <g id="页面-1" stroke="none" stroke-width="1" fill="none" fill-rule="evenodd">
        <g id="94个人中心" transform="translate(-94.000000, -312.000000)" fill="#888888" fill-rule="nonzero">
            <g id="编组" transform="translate(94.000000, 312.000000)">
                <path d="M1.07815817,13.8087181 C1.45745971,13.8086601 1.80797363,14.0109817 1.99764117,14.3394568 C2.1873087,14.6679319 2.1873087,15.0726467 1.99764117,15.4011218 C1.80797363,15.7295969 1.45745971,15.9319185 1.07815817,15.9318604 C0.491932091,15.9317706 0.0167495515,15.4565154 0.0167495515,14.8702893 C0.0167495515,14.2840632 0.491932091,13.8088079 1.07815817,13.8087181 L1.07815817,13.8087181 Z M19.7087314,14.0741109 C19.8255042,14.0741109 19.9210457,14.1696523 19.9210457,14.2864252 L19.9210457,15.4541534 C19.9210457,15.5104626 19.8986769,15.5644656 19.8588603,15.6042822 C19.8190436,15.6440989 19.7650407,15.6664676 19.7087314,15.6664676 L4.20979299,15.6664676 C4.15348376,15.6664676 4.0994808,15.6440989 4.05966416,15.6042822 C4.01984752,15.5644656 3.99747878,15.5104626 3.99747878,15.4541534 L3.99747878,14.2864252 C3.99747878,14.1696523 4.09302018,14.0741109 4.20979299,14.0741109 L19.7087314,14.0741109 L19.7087314,14.0741109 Z M1.07815817,6.90850583 C1.45745971,6.90844778 1.80797363,7.11076939 1.99764117,7.43924449 C2.1873087,7.76771958 2.1873087,8.17243435 1.99764117,8.50090945 C1.80797363,8.82938455 1.45745971,9.03170616 1.07815817,9.0316481 C0.491932091,9.03155834 0.0167495515,8.55630305 0.0167495515,7.97007697 C0.0167495515,7.38385089 0.491932091,6.90859559 1.07815817,6.90850583 Z M19.7087314,7.17389861 C19.8255042,7.17389861 19.9210457,7.26944001 19.9210457,7.38621285 L19.9210457,8.55394108 C19.9210457,8.61025032 19.8986769,8.66425327 19.8588603,8.70406991 C19.8190436,8.74388655 19.7650406,8.7662553 19.7087314,8.7662553 L4.20979299,8.7662553 C4.15348376,8.7662553 4.09948081,8.74388654 4.05966417,8.70406991 C4.01984753,8.66425327 3.99747878,8.61025031 3.99747878,8.55394108 L3.99747878,7.38621285 C3.99747878,7.26944004 4.09302018,7.17389861 4.20979299,7.17389861 L19.7087314,7.17389861 Z M1.07815817,0.00829351612 C1.66444771,0.00829351612 2.1397293,0.483575102 2.1397293,1.06986465 C2.1397293,1.6561542 1.66444771,2.13143578 1.07815817,2.13143578 C0.49186863,2.13143578 0.0165870639,1.65615419 0.0165870639,1.06986465 C0.0165870639,0.483575114 0.49186863,0.00829351612 1.07815817,0.00829351612 L1.07815817,0.00829351612 Z M19.7087314,0.273686306 C19.8255042,0.273686306 19.9210457,0.369227707 19.9210457,0.486000522 L19.9210457,1.65372878 C19.9210457,1.71003801 19.8986769,1.76404097 19.8588603,1.80385761 C19.8190436,1.84367425 19.7650406,1.86604299 19.7087314,1.86604299 L4.20979299,1.86604299 C4.15348376,1.86604299 4.09948081,1.84367424 4.05966417,1.8038576 C4.01984753,1.76404096 3.99747878,1.71003801 3.99747878,1.65372878 L3.99747878,0.486000522 C3.99747878,0.369227707 4.09302018,0.273686306 4.20979299,0.273686306 L19.7087314,0.273686306 Z" id="形状"></path>
            </g>
        </g>
    </g>
</svg>