<?xml version="1.0" encoding="UTF-8"?>
<svg width="20px" height="20px" viewBox="0 0 20 20" version="1.1" xmlns="http://www.w3.org/2000/svg" xmlns:xlink="http://www.w3.org/1999/xlink">
    <!-- Generator: Sketch 60.1 (88133) - https://sketch.com -->
    <title>编组</title>
    <desc>Created with Sketch.</desc>
    <g id="页面-1" stroke="none" stroke-width="1" fill="none" fill-rule="evenodd">
        <g id="94个人中心" transform="translate(-94.000000, -388.000000)" fill="#888888" fill-rule="nonzero">
            <g id="编组" transform="translate(94.000000, 388.000000)">
                <path d="M9.53947368,0 C13.1384712,0 16.0557644,2.77142857 16.0557644,6.19047618 L16.0557644,9.04761904 C17.7167712,9.04761904 19.0632832,10.3268055 19.0632832,11.9047619 L19.0632832,17.1428571 C19.0632832,18.7208136 17.7167712,20 16.0557644,20 L3.02318297,20 C1.3621762,20 0.0156641682,18.7208136 0.0156641682,17.1428571 L0.0156641682,11.9047619 C0.0156641682,10.3268055 1.3621762,9.04761904 3.02318297,9.04761904 L3.02318297,6.19047618 C3.02318297,2.77142857 5.9404762,0 9.53947368,0 Z M16.0557644,10.4761905 L3.02318297,10.4761905 C2.22691347,10.4761905 1.56864428,11.0657993 1.52192982,11.8209524 L1.51942357,11.9047619 L1.51942357,17.1428571 C1.51942357,17.8993131 2.1400644,18.5246689 2.93496241,18.5690476 L3.02318297,18.5714286 L16.0557644,18.5714286 C16.8520339,18.5714286 17.5103031,17.9818198 17.5570176,17.2266667 L17.5595238,17.1428571 L17.5595238,11.9047619 C17.5595238,11.1483059 16.938883,10.5229502 16.143985,10.4785714 L16.0557644,10.4761905 Z M10.3414787,12.8571429 C10.4517544,12.8571429 10.54198,12.9428571 10.54198,13.047619 L10.54198,15.5238095 C10.54198,15.574327 10.5208558,15.6227753 10.4832545,15.6584965 C10.4456532,15.6942178 10.3946549,15.7142857 10.3414787,15.7142857 L9.2387218,15.7142857 C9.12798802,15.7142857 9.03822056,15.6290066 9.03822056,15.5238095 L9.03822056,13.047619 C9.03822056,12.9428571 9.12844612,12.8571429 9.2387218,12.8571429 L10.3414787,12.8571429 L10.3414787,12.8571429 Z M9.53947368,1.42857143 C6.81766917,1.42857143 4.60313282,3.48904761 4.52894737,6.05714286 L4.52694236,6.19047618 L4.52694236,9.04761904 L14.552005,9.04761904 L14.552005,6.19047618 C14.552005,3.6047619 12.3830827,1.50095237 9.67982455,1.43047618 L9.53947368,1.42857143 Z" id="形状"></path>
            </g>
        </g>
    </g>
</svg>