<?xml version="1.0" encoding="UTF-8"?>
<svg width="20px" height="20px" viewBox="0 0 20 20" version="1.1" xmlns="http://www.w3.org/2000/svg" xmlns:xlink="http://www.w3.org/1999/xlink">
    <!-- Generator: Sketch 60.1 (88133) - https://sketch.com -->
    <title>编组</title>
    <desc>Created with Sketch.</desc>
    <g id="页面-1" stroke="none" stroke-width="1" fill="none" fill-rule="evenodd">
        <g id="94个人中心" transform="translate(-94.000000, -428.000000)" fill="#4AB7ED" fill-rule="nonzero">
            <g id="编组" transform="translate(94.000000, 428.000000)">
                <path d="M16.1904762,0 C18.2480515,0 19.933796,1.63390583 19.9980952,3.69047618 L20,3.80952382 L20,10.7619048 C20,10.8124222 19.979932,10.8608706 19.9442108,10.8965918 C19.9084896,10.932313 19.8600412,10.952381 19.8095238,10.952381 L18.7619048,10.952381 C18.7113873,10.952381 18.662939,10.932313 18.6272177,10.8965918 C18.5914965,10.8608706 18.5714286,10.8124222 18.5714286,10.7619048 L18.5714286,3.80952382 L18.5690476,3.70619047 C18.5154985,2.47356848 17.5292204,1.48605035 16.2966667,1.43095239 L16.1904762,1.42857143 L3.80952382,1.42857143 L3.70619047,1.43095239 C2.47356848,1.48450155 1.48605035,2.4707796 1.43095239,3.70333333 L1.42857143,3.80952382 L1.42857143,16.1904762 L1.43095239,16.2938095 C1.48450155,17.5264315 2.4707796,18.5139496 3.70333333,18.5690476 L3.80952382,18.5714286 L10.7619048,18.5714286 C10.8666667,18.5714286 10.9523809,18.6571429 10.952381,18.7619048 L10.952381,19.8095238 C10.952381,19.8600412 10.932313,19.9084896 10.8965918,19.9442108 C10.8608706,19.979932 10.8124222,20 10.7619048,20 L3.80952382,20 C1.75194855,20 0.0662039895,18.3660942 0.00190475446,16.3095238 L0,16.1904762 L0,3.80952382 C0,1.75194855 1.63390583,0.0662039895 3.69047618,0.00190475446 L3.80952382,0 L16.1904762,0 Z M18.0952381,12.3809524 C19.1472091,12.3809524 20,13.2337433 20,14.2857143 L20,18.0952381 C20,18.6004124 19.7993203,19.084896 19.4421082,19.4421082 C19.084896,19.7993203 18.6004124,20 18.0952381,20 L14.2857143,20 C13.78054,20 13.2960564,19.7993203 12.9388442,19.4421082 C12.5816321,19.084896 12.3809524,18.6004124 12.3809524,18.0952381 L12.3809524,14.2857143 C12.3809524,13.2337433 13.2337433,12.3809524 14.2857143,12.3809524 L18.0952381,12.3809524 Z M18.0952381,13.8095238 L14.2857143,13.8095238 L14.23,13.8128571 C13.9902415,13.8411029 13.8095238,14.0442977 13.8095238,14.2857143 L13.8095238,18.0952381 L13.8128571,18.1509524 C13.8411029,18.3907109 14.0442977,18.5714286 14.2857143,18.5714286 L18.0952381,18.5714286 L18.1509524,18.5680952 C18.3907109,18.5398495 18.5714286,18.3366547 18.5714286,18.0952381 L18.5714286,14.2857143 L18.5680952,14.23 C18.5398495,13.9902415 18.3366547,13.8095238 18.0952381,13.8095238 L18.0952381,13.8095238 Z M3.93190475,2.92190475 L9.04761904,8.03714286 L9.04761904,4.47619047 C9.04761904,4.37142857 9.13333333,4.28571429 9.23809525,4.28571429 L10.2857143,4.28571429 C10.3904762,4.28571429 10.4761905,4.37142857 10.4761905,4.47619047 L10.4761905,9.04761904 C10.4761905,9.80407505 9.88658168,10.4294308 9.13142857,10.4738095 L9.04761904,10.4761905 L4.47619047,10.4761905 C4.37099338,10.4761905 4.28571429,10.3909114 4.28571429,10.2857143 L4.28571429,9.23809525 C4.28571429,9.13333335 4.37142857,9.04761906 4.47619047,9.04761904 L8.03714286,9.04761904 L2.92190475,3.93190475 L3.93190475,2.92190475 Z" id="形状"></path>
            </g>
        </g>
    </g>
</svg>
