<?xml version="1.0" encoding="UTF-8"?>
<svg width="14px" height="14px" viewBox="0 0 14 14" version="1.1" xmlns="http://www.w3.org/2000/svg" xmlns:xlink="http://www.w3.org/1999/xlink">
    <!-- Generator: Sketch 60.1 (88133) - https://sketch.com -->
    <title>编组</title>
    <desc>Created with Sketch.</desc>
    <g id="页面-1" stroke="none" stroke-width="1" fill="none" fill-rule="evenodd">
        <g id="11注册-昵称&amp;性别&amp;头像" transform="translate(-240.000000, -269.000000)" fill="#CCCCCC" fill-rule="nonzero">
            <g id="编组" transform="translate(240.000000, 269.000000)">
                <path d="M8.64888888,5.88777778 L9.91666666,4.82222222 L9.91666666,5.83333334 C9.91666666,6.15549944 10.1778339,6.41666668 10.5,6.41666668 C10.8221661,6.41666668 11.0833333,6.15549944 11.0833333,5.83333334 L11.0833333,3.5 C11.0833333,3.17783389 10.8221661,2.91666666 10.5,2.91666666 L8.16666666,2.91666666 C7.95826173,2.90833046 7.76124032,3.0118102 7.64981849,3.18812607 C7.53839667,3.36444194 7.52950205,3.58680735 7.62648516,3.77145942 C7.72346827,3.95611148 7.91159507,4.07499715 8.12,4.08333334 L8.98333334,4.08333334 L7.77777778,5.11777778 C6.3539889,4.27400051 4.52187269,4.65330074 3.55013003,5.99302126 C2.57838737,7.33274178 2.78675381,9.19207012 4.03094009,10.2834616 C5.27512637,11.3748531 7.14575396,11.3392037 8.34745369,10.2011999 C9.54915342,9.06319615 9.68652624,7.1972789 8.66444444,5.89555556 L8.64888888,5.88777778 Z M7,0 L14,0 L14,7 C14,10.8659932 10.8659932,14 7,14 C3.13400675,14 0,10.8659932 0,7 C0,3.13400675 3.13400675,0 7,0 Z M6.12888888,10.0644583 C5.24036065,10.0675897 4.43771738,9.53435747 4.09623783,8.71406238 C3.75475827,7.8937673 3.94191569,6.94849224 4.57020397,6.32020397 C5.19849224,5.69191569 6.1437673,5.50475827 6.96406238,5.84623783 C7.78435747,6.18771738 8.3175897,6.99036065 8.31445828,7.87888888 C8.31445828,9.08593789 7.33593789,10.0644583 6.12888888,10.0644583 L6.12888888,10.0644583 Z" id="形状"></path>
            </g>
        </g>
    </g>
</svg>
