<?xml version="1.0" encoding="UTF-8"?>
<svg width="40px" height="40px" viewBox="0 0 40 40" version="1.1" xmlns="http://www.w3.org/2000/svg" xmlns:xlink="http://www.w3.org/1999/xlink">
    <title>编组 7</title>
    <g id="页面-1" stroke="none" stroke-width="1" fill="none" fill-rule="evenodd">
        <g id="87我的好友" transform="translate(-94.000000, -156.000000)" fill-rule="nonzero">
            <g id="编组-7" transform="translate(94.000000, 156.000000)">
                <path d="M0,20 C0,31.045695 8.954305,40 20,40 C31.045695,40 40,31.045695 40,20 C40,8.954305 31.045695,7.10542736e-15 20,7.10542736e-15 C8.954305,7.10542736e-15 0,8.954305 0,20 Z" id="路径" fill="#0091FF"></path>
                <g id="编组" transform="translate(10.000000, 9.000000)" fill="#FFFFFF">
                    <path d="M19.2271661,14.3631346 C18.3601683,13.5336645 16.9495723,13.6628035 16.1228615,14.5325607 L15.5301462,15.1556291 C15.5060323,15.181507 15.4722507,15.196203 15.4368791,15.196203 C15.4015076,15.196203 15.367726,15.181507 15.343612,15.1556291 L14.7508968,14.5325607 C13.924186,13.6633554 12.51359,13.5336645 11.6465922,14.3631346 C10.7155767,15.2533113 10.6901904,16.7698675 11.5693295,17.6948124 L12.3430601,18.5082781 L15.0500138,21.3559603 C15.15019,21.4630254 15.2902565,21.5237883 15.4368791,21.5237883 C15.5835018,21.5237883 15.7235683,21.4630254 15.8237445,21.3559603 L19.3044288,17.6948124 C20.1835679,16.7693157 20.1581816,15.2533113 19.2271661,14.3631346 L19.2271661,14.3631346 Z M10.0113825,6.75015599e-14 C6.65873344,6.75015599e-14 3.94074227,2.71799118 3.94074227,6.07064019 C3.94074227,8.16942607 5.00586367,10.0187638 6.62506899,11.1092715 C2.77407562,12.5496689 0.00862305981,16.3587197 0.00862305981,20.8333333 C0.00862305981,21.2905227 0.379248267,21.6611479 0.836437629,21.6611479 C1.29362699,21.6611479 1.6642522,21.2905227 1.6642522,20.8333333 C1.6642522,16.040287 5.40873344,12.1412803 10.0113825,12.1412803 C13.3640315,12.1412803 16.0820226,9.42328917 16.0820226,6.07064019 C16.0820226,2.7179912 13.3640315,6.75015599e-14 10.0113825,6.75015599e-14 Z" id="形状"></path>
                </g>
            </g>
        </g>
    </g>
</svg>