<?xml version="1.0" encoding="UTF-8"?>
<svg width="40px" height="40px" viewBox="0 0 40 40" version="1.1" xmlns="http://www.w3.org/2000/svg" xmlns:xlink="http://www.w3.org/1999/xlink">
    <!-- Generator: Sketch 60.1 (88133) - https://sketch.com -->
    <title>编组备份 3</title>
    <desc>Created with Sketch.</desc>
    <g id="页面-1" stroke="none" stroke-width="1" fill="none" fill-rule="evenodd">
        <g id="90我的群组" transform="translate(-94.000000, -96.000000)" fill-rule="nonzero">
            <g id="编组备份-3" transform="translate(94.000000, 96.000000)">
                <g id="编组备份">
                    <path d="M0,19.9239418 C0,30.927631 8.92025259,39.8478836 19.9239418,39.8478836 C30.927631,39.8478836 39.8478836,30.927631 39.8478836,19.9239418 C39.8478836,8.92025259 30.927631,0 19.9239418,0 C8.92025259,0 0,8.92025259 0,19.9239418 Z" id="路径" fill="#FF973B"></path>
                    <path d="M25.6572421,29.6957672 C25,29.6957672 24.3799603,29.5717593 23.797123,29.3196098 C23.2101521,29.0715939 22.7017196,28.7285053 22.2635582,28.2903439 C21.8253968,27.8521825 21.4823082,27.34375 21.2342923,26.7567791 C20.9862765,26.1698082 20.8581349,25.5497685 20.8581349,24.8966601 C20.8581349,24.239418 20.9821429,23.6193783 21.2342923,23.036541 C21.4823082,22.4495701 21.8253968,21.9452712 22.2635582,21.515377 C22.7017196,21.0854828 23.2101521,20.7465278 23.797123,20.4985119 C24.3840939,20.250496 25.0041336,20.1223545 25.6572421,20.1223545 C26.3144841,20.1223545 26.9345238,20.2463624 27.5173611,20.4985119 C28.104332,20.7465278 28.608631,21.0896164 29.0385251,21.515377 C29.4684193,21.9452712 29.8073743,22.4537037 30.0553902,23.036541 C30.3034061,23.6235119 30.4315476,24.2435516 30.4315476,24.8966601 C30.4315476,25.5539021 30.3075397,26.1739418 30.0553902,26.7567791 C29.8073743,27.34375 29.4642857,27.8521825 29.0385251,28.2903439 C28.608631,28.7285053 28.1001984,29.0715939 27.5173611,29.3196098 C26.9345238,29.5717593 26.3144841,29.6957672 25.6572421,29.6957672 Z M28.0216601,24.1236772 L26.2896825,24.1236772 L26.2896825,22.5074405 C26.2896825,22.2883598 26.2194114,22.1023479 26.078869,21.9452712 C25.9383267,21.7881944 25.760582,21.7096561 25.5415013,21.7096561 C25.3224206,21.7096561 25.1529431,21.7881944 25.0248016,21.9452712 C24.9007937,22.1023479 24.8387897,22.2883598 24.8387897,22.5074405 L24.8387897,24.1236772 L23.3176257,24.1236772 C23.098545,24.1236772 22.9125331,24.2022156 22.7554563,24.3592923 C22.5983796,24.516369 22.5198413,24.702381 22.5198413,24.9214616 C22.5198413,25.1405423 22.5983796,25.3017526 22.7554563,25.4133598 C22.9125331,25.5208333 23.098545,25.5787037 23.3176257,25.5787037 L24.8387897,25.5787037 L24.8387897,27.2404101 C24.8387897,27.4594907 24.9007937,27.6455026 25.0248016,27.8025794 C25.1488095,27.9596561 25.3224206,28.0381944 25.5415013,28.0381944 C25.760582,28.0381944 25.9383267,27.9596561 26.078869,27.8025794 C26.2194114,27.6455026 26.2896825,27.4594907 26.2896825,27.2404101 L26.2896825,25.5787037 L28.0216601,25.5787037 L28.0216601,25.6241733 C28.2407407,25.6241733 28.4267526,25.5621693 28.5838294,25.4381614 C28.7409061,25.3141534 28.8194444,25.1405423 28.8194444,24.9214616 C28.8194444,24.702381 28.7409061,24.516369 28.5838294,24.3592923 C28.4267526,24.2022156 28.2407407,24.1236772 28.0216601,24.1236772 L28.0216601,24.1236772 Z M22.2387566,18.2953042 C22.1767526,18.5433201 22.1147487,18.770668 22.0527447,18.9732143 C21.9907407,19.1468254 21.9122024,19.3204365 21.8171296,19.4981812 C21.7220569,19.6759259 21.6228505,19.8123347 21.5112434,19.9074074 C21.3707011,20.014881 21.2714947,20.1347553 21.2177579,20.2587632 C21.1640212,20.3827712 21.114418,20.5150463 21.0772156,20.6431878 C21.0358796,20.7795966 20.9945437,20.9160053 20.9490741,21.052414 C20.9036045,21.1929563 20.8250661,21.3334987 20.713459,21.474041 C20.353836,21.9411376 20.0851521,22.3958333 19.9074074,22.8298611 C19.7296627,23.2680225 19.6015212,23.6896495 19.53125,24.0947421 C19.4609788,24.4998347 19.4403108,24.9007937 19.4733796,25.3017526 C19.5064484,25.698578 19.5684524,26.0871362 19.6593915,26.4591601 C19.7213955,26.7402447 19.8164683,27.0337302 19.9404762,27.3354828 C20.0644841,27.641369 20.250496,27.9513889 20.4902447,28.2738095 C20.734127,28.5920966 21.0400132,28.90625 21.4161706,29.2121362 C21.792328,29.5180225 22.2594246,29.8073743 22.8215939,30.088459 C22.4454365,30.1669974 22.0114087,30.2372685 21.5112434,30.2992725 C21.0896164,30.3447421 20.5729167,30.3902116 19.952877,30.427414 C19.3369709,30.4646164 18.6301257,30.4852844 17.8364749,30.4852844 C17.4313823,30.4852844 16.9601521,30.46875 16.4186508,30.4398148 C15.8647487,30.406746 15.3108466,30.3695437 14.7569444,30.3240741 C14.1947751,30.2786045 13.6326058,30.2248677 13.0704365,30.1587302 C12.5165344,30.0967262 12.0081019,30.0305886 11.5492725,29.9603175 C11.0904431,29.8900463 10.6977513,29.8156415 10.3794643,29.7371032 C10.0611772,29.6585648 9.85863095,29.5882937 9.78422619,29.5262897 C9.64368386,29.4022817 9.53621032,29.0550595 9.45767196,28.484623 C9.3791336,27.9141865 9.40393519,27.1701389 9.52794312,26.2483466 C9.60648148,25.7316468 9.81316138,25.338955 10.1479828,25.0661376 C10.4828042,24.7933201 10.875496,24.578373 11.3301918,24.4212963 C11.780754,24.2642196 12.2561177,24.1195437 12.7480159,23.9872685 C13.239914,23.8549934 13.6739418,23.6731151 14.0459656,23.4375 C14.3435847,23.2514881 14.5667989,23.0737434 14.7238757,22.9125331 C14.8809524,22.7471892 14.9884259,22.5818452 15.0504299,22.4082341 C15.1124339,22.234623 15.1455026,22.0568783 15.1455026,21.8708664 C15.1455026,21.6848545 15.1372354,21.4823082 15.1207011,21.2632275 C15.0876323,20.9366733 14.9760251,20.6762566 14.781746,20.4902447 C14.5874669,20.3042328 14.380787,20.1140873 14.1617063,19.9280754 C14.0376984,19.8330026 13.9260913,19.6924603 13.8351521,19.5064484 C13.7400794,19.3204365 13.661541,19.1385582 13.599537,18.9690807 C13.5209987,18.7665344 13.4589947,18.5391865 13.4135251,18.2911706 C13.3060516,18.2622354 13.2027116,18.2126323 13.1076389,18.1506283 C13.0291005,18.0886243 12.942295,17.9935516 12.8513558,17.8695437 C12.7562831,17.7455357 12.6736111,17.5595238 12.5950728,17.3073743 C12.5165344,17.0717593 12.4917328,16.8568122 12.5124008,16.6501323 C12.5372024,16.447586 12.5785384,16.2739749 12.6405423,16.1334325 C12.7025463,15.9598214 12.7893519,15.8151455 12.8968254,15.687004 C12.8968254,15.1579034 12.9298942,14.6246693 12.9918981,14.0955688 C13.0539021,13.6450066 13.1531085,13.1572421 13.2853836,12.6446759 C13.4176587,12.1279762 13.6326058,11.6691468 13.9302249,11.2640542 C14.2113095,10.875496 14.5130622,10.5530754 14.8313492,10.3050595 C15.1496362,10.0570437 15.4844577,9.85863095 15.8275463,9.71808862 C16.1706349,9.5775463 16.5137235,9.47833995 16.8568122,9.42460317 C17.1999008,9.3708664 17.526455,9.34193122 17.8406085,9.34193122 C18.2457011,9.34193122 18.6383929,9.38740079 19.0104167,9.48247354 C19.3865741,9.5775463 19.7337963,9.70155423 20.0520833,9.85863095 C20.3703704,10.0157077 20.6555886,10.1893188 20.9077381,10.3835979 C21.155754,10.577877 21.3583003,10.7762897 21.515377,10.978836 C21.875,11.4293981 22.1354167,11.9295635 22.3007606,12.4751984 C22.4661045,13.0208333 22.5859788,13.5375331 22.6645172,14.021164 C22.7430556,14.5833333 22.7719907,15.1455026 22.7595899,15.707672 C22.8546627,15.7862103 22.9332011,15.8812831 22.995205,15.9887566 C23.057209,16.0838294 23.1026786,16.2078373 23.1357474,16.364914 C23.1688161,16.5219907 23.1688161,16.7162698 23.1357474,16.9518849 C23.1026786,17.249504 23.0406746,17.4809854 22.9497354,17.6545966 C22.8546627,17.8282077 22.7554563,17.9604828 22.6438492,18.051422 C22.5115741,18.1712963 22.3792989,18.2498347 22.2387566,18.2953042 L22.2387566,18.2953042 Z" id="形状" fill="#FFFFFF"></path>
                </g>
            </g>
        </g>
    </g>
</svg>