<?xml version="1.0" encoding="UTF-8"?>
<svg width="20px" height="20px" viewBox="0 0 20 20" version="1.1" xmlns="http://www.w3.org/2000/svg" xmlns:xlink="http://www.w3.org/1999/xlink">
    <!-- Generator: Sketch 60.1 (88133) - https://sketch.com -->
    <title>编组</title>
    <desc>Created with Sketch.</desc>
    <g id="页面-1" stroke="none" stroke-width="1" fill="none" fill-rule="evenodd">
        <g id="94个人中心" transform="translate(-94.000000, -348.000000)" fill="#4AB7ED" fill-rule="nonzero">
            <g id="编组" transform="translate(94.000000, 348.000000)">
                <path d="M18.9651806,1.03233507 C20.3305409,2.38830357 20.3305409,4.58666749 18.9651806,5.94263599 L5.1260198,19.6856915 C5.01666297,19.7940149 4.86847399,19.8546732 4.71401516,19.8546732 L1.17613636,19.8546732 C0.532447839,19.8546732 0.0106342583,19.3364841 0.0106342583,18.6972656 L0.0106342583,15.1845342 C0.0103589733,15.0309475 0.0715746532,14.8835512 0.180798377,14.7748119 L14.0217075,1.03233507 C15.3870916,-0.323157772 17.6003793,-0.323157772 18.9657634,1.03233507 L18.9651806,1.03233507 Z M17.7297494,2.25918693 C17.0750249,1.60913393 16.0234885,1.57868239 15.3317308,2.18974249 L15.2565559,2.25918693 L1.82706876,15.5959925 C1.78336513,15.6394409 1.75888687,15.6983544 1.75888687,15.7597656 L1.75888687,17.8882378 C1.75888687,18.0161314 1.8631993,18.1197193 1.99198719,18.1197193 L4.13417832,18.1197193 C4.19610271,18.1197193 4.25544006,18.0950447 4.29909673,18.0514323 L17.7291667,4.71578415 C18.3839352,4.06576223 18.4148554,3.02152325 17.7996795,2.3344184 L17.7297494,2.26034432 L17.7297494,2.25918693 Z" id="形状"></path>
                <polygon id="路径" points="12.784528 2.25976562 17.7291667 7.17006654 16.4931527 8.3974971 11.548514 3.48719618"></polygon>
                <path d="M10.3037587,18.1405527 L19.7443182,18.1405527 C19.8997183,18.1405527 19.9774184,18.2177132 19.9774184,18.3720342 L19.9774184,19.6451823 C19.9774184,19.7995033 19.8997183,19.8766638 19.7443182,19.8766638 L10.3037587,19.8766638 C10.1483586,19.8766638 10.0706585,19.7995033 10.0706585,19.6451823 L10.0706585,18.3720342 C10.0706585,18.2177132 10.1483586,18.1405527 10.3037587,18.1405527 Z" id="路径"></path>
                <path d="M14.9657634,14.6683304 L19.7443182,14.6683304 C19.8997183,14.6683304 19.9774184,14.7454909 19.9774184,14.8998119 L19.9774184,16.1729601 C19.9774184,16.3272811 19.8997183,16.4044415 19.7443182,16.4044415 L14.9657634,16.4044415 C14.8103633,16.4044415 14.7326632,16.3272811 14.7326632,16.1729601 L14.7326632,14.8998119 C14.7326632,14.7454909 14.8103632,14.6683304 14.9657634,14.6683304 Z" id="路径"></path>
            </g>
        </g>
    </g>
</svg>
