<?xml version="1.0" encoding="utf-8"?>
<!-- Generator: Adobe Illustrator 24.1.0, SVG Export Plug-In . SVG Version: 6.00 Build 0)  -->
<svg version="1.1" id="图层_1" xmlns="http://www.w3.org/2000/svg" xmlns:xlink="http://www.w3.org/1999/xlink" x="0px" y="0px"
	 viewBox="0 0 24 24" style="enable-background:new 0 0 24 24;" xml:space="preserve">
<style type="text/css">
	.st0{fill:none;}
	.st1{fill:#4AB7ED;}
</style>
<g>
	<rect class="st0" width="24" height="24"/>
</g>
<g>
	<g>
		<path class="st1" d="M0,10.7h10.7V0H0V10.7z M2.7,2.7H8V8H2.7V2.7z"/>
		<path class="st1" d="M0,24h10.7V13.3H0V24z M2.7,16H8v5.3H2.7V16z"/>
		<path class="st1" d="M13.3,0v10.7H24V0H13.3z M21.3,8H16V2.7h5.3V8z"/>
		<rect x="21.3" y="21.3" class="st1" width="2.7" height="2.7"/>
		<rect x="13.3" y="13.3" class="st1" width="2.7" height="2.7"/>
		<rect x="16" y="16" class="st1" width="2.7" height="2.7"/>
		<rect x="13.3" y="18.7" class="st1" width="2.7" height="2.7"/>
		<rect x="16" y="21.3" class="st1" width="2.7" height="2.7"/>
		<rect x="18.7" y="18.7" class="st1" width="2.7" height="2.7"/>
		<rect x="18.7" y="13.3" class="st1" width="2.7" height="2.7"/>
		<rect x="21.3" y="16" class="st1" width="2.7" height="2.7"/>
	</g>
</g>
</svg>
