<?xml version="1.0" encoding="UTF-8"?>
<svg width="35px" height="44px" viewBox="0 0 35 44" version="1.1" xmlns="http://www.w3.org/2000/svg" xmlns:xlink="http://www.w3.org/1999/xlink">
    <!-- Generator: Sketch 60.1 (88133) - https://sketch.com -->
    <title>编组 23</title>
    <desc>Created with Sketch.</desc>
    <g id="页面-1" stroke="none" stroke-width="1" fill="none" fill-rule="evenodd">
        <g id="24-d-单聊-红包未领取状态备份" transform="translate(-656.000000, -283.000000)">
            <g id="编组-2" transform="translate(641.000000, 268.000000)">
                <g id="编组-23" transform="translate(15.000000, 15.000000)">
                    <g id="编组-22" fill-rule="nonzero">
                        <g id="编组">
                            <path d="M2.80324917,0 L32.0416836,0 C33.8868825,0 34.8094819,1.02065858 34.8094819,3.06197573 L34.8094819,40.925504 C34.8094819,42.9668211 33.8868825,43.9874796 32.0416836,43.9874796 L2.80324917,43.9874796 C0.958050297,43.9874796 0.0354508612,42.9668211 0.0354508612,40.925504 L0.0354508612,3.06197573 C0.0354508612,1.02065858 0.958050297,0 2.80324917,0 Z" id="路径" fill="#D83B1D"></path>
                            <path d="M17.5087054,17.1348441 C10.630858,17.1348441 4.31345116,14.4805308 0.0345454878,8.45123327 L0.0345454878,6.90872669 C4.23739786,12.8313509 10.7213977,16.2278703 17.5087054,16.2278703 C24.2860539,16.2278703 30.6500886,12.7417052 34.852941,6.83260299 L34.852941,8.41166898 C30.5758461,14.4254413 24.3770463,17.1348441 17.5087054,17.1348441 Z" id="路径" fill="#F5D49A"></path>
                        </g>
                        <path d="M19.4934187,39.8329802 C18.0119739,40.1681346 16.4711115,39.8579377 15.1901814,38.966679 C13.4415784,37.5236582 13.5759169,35.7898339 13.1729013,34.7817965 C12.7572869,33.9070812 11.9088868,33.3949381 11.0212827,33.4829556 C11.8154469,33.6659309 12.4437585,34.339827 12.6355472,35.2143362 L12.6355472,35.6468758 C12.6355472,35.6468758 12.097092,36.0794155 11.0212827,35.5026959 C10.2248532,34.9605912 9.93296875,33.8336144 10.3484889,32.9050141 C10.8554289,31.9963381 11.8812877,31.6294842 12.7709869,32.0387129 C12.8368937,32.5755791 13.1181115,33.0505549 13.5360019,33.3308205 C13.9538924,33.6110861 14.4636047,33.6665614 14.9226055,33.4817337 C15.9984149,33.049194 16.4014304,31.4607715 15.4610608,30.8840519 C15.1838639,30.7126124 14.8502855,30.6952164 14.5598204,30.8370527 C14.2693554,30.978889 14.0555725,31.2635656 13.9822359,31.6061732 C13.9822359,32.0387129 14.5206911,32.4724744 14.7893681,32.0387129 C14.8630876,31.9249654 14.890511,31.7821596 14.8649846,31.6449453 C14.8394582,31.5077311 14.7633149,31.3886486 14.6550296,31.3165916 C14.9237067,31.0282318 15.5965004,31.4607715 15.3278234,32.1828928 C15.0794788,32.6394616 14.5773187,32.8412815 14.1230872,32.6670805 C13.6688556,32.4928795 13.386165,31.9900639 13.4448818,31.4607715 C13.4498294,31.1019387 13.6122594,30.7683592 13.8800343,30.5671065 C14.1478093,30.3658538 14.4872375,30.3222497 14.7893681,30.4502903 C14.9159017,30.041055 15.1946489,29.7117721 15.5548205,29.5460649 C15.9149921,29.3803576 16.3219372,29.3941681 16.6723097,29.5839891 C17.2126758,29.9342016 17.4414727,30.6698888 17.210765,31.3153697 C17.6732621,31.4713687 17.996758,31.934153 18.0178972,32.4700307 C18.0178972,33.192152 17.6148817,33.3363319 16.4036327,33.9130515 C15.7177255,34.2929188 15.2965694,35.0840817 15.3278234,35.9340138 C15.3656381,37.1679512 16.1327069,38.2261894 17.210765,38.5316956 C18.2470331,38.9501797 19.3749613,39.000568 20.4381929,38.6758755 C18.015695,39.1084152 16.2692942,37.8095743 16.1349556,36.0781937 C16.0525365,34.9605781 16.7531821,33.958254 17.7492202,33.7688716 C18.1649922,33.5795175 18.5338742,33.2824734 18.8250295,32.9025704 C18.9338711,32.5543917 18.909097,32.1718945 18.7565032,31.8445654 C18.6039094,31.5172363 18.3368836,31.273793 18.0178972,31.1711898 C18.6459211,30.7877125 19.4071535,30.7877125 20.0351774,31.1711898 C20.4993343,31.4783318 20.8002687,32.0163534 20.8423096,32.6142106 C20.8423096,32.6142106 21.918119,32.7583905 22.186796,33.4805118 C22.3867268,33.9410293 22.3798982,34.4790563 22.1683594,34.9331435 C21.9568205,35.3872307 21.5651899,35.7045325 21.1109867,35.7898339 C20.4296819,35.8921666 19.7701522,35.4793209 19.4967221,34.7793528 C19.9144617,34.1075445 20.6772373,33.8150147 21.3796637,34.0572314 C19.0937066,33.0467503 18.1522358,35.5002522 18.6895899,36.5107334 C19.3093489,37.440853 20.3571577,37.8906042 21.3796637,37.6653944 C22.3626098,37.4192991 23.3121919,37.0310961 24.2040761,36.5107334 C25.539385,36.1927717 26.9245319,36.2422716 28.2386364,36.6549132 C24.2040761,35.0664907 23.1282668,36.943273 21.1109867,37.0874529 C18.959368,37.3758127 19.2280451,35.4990304 19.2280451,35.4990304 C19.6778808,36.3944968 20.6324934,36.8164723 21.5140022,36.5095115 C22.3408216,36.2478433 22.9318086,35.4402003 22.9928271,34.4885492 C23.3521137,34.2558719 23.6349312,33.9018013 23.7999594,33.4780681 C24.1287582,33.6844197 24.5263068,33.7053474 24.8712337,33.5344621 C25.2161606,33.3635768 25.4675164,33.0211657 25.5485625,32.6117669 C25.8172395,31.312926 24.4727532,30.8803863 24.4727532,30.8803863 C24.7193892,29.946685 24.2574658,28.963511 23.4263886,28.653267 C22.5953114,28.343023 21.6917735,28.8164656 21.3796637,29.7257253 C19.7653992,29.0036039 19.2280451,30.3036667 19.2280451,30.3036667 C18.7636804,30.2396612 18.292982,30.3406146 17.8835587,30.5920265 C17.8931145,30.0799061 17.7099938,29.5865133 17.3781929,29.2303902 C17.0463921,28.8742671 16.5959015,28.6876024 16.1349556,28.7152441 C15.4085745,28.7425791 14.7698721,29.2564804 14.5206911,30.0140851 C14.0396474,29.9677096 13.5602938,30.1219243 13.1762047,30.4466247 C12.9075277,29.1477838 11.4276017,29.2919637 11.4276017,29.2919637 C11.3699175,28.6876815 11.0349432,28.1593686 10.5418632,27.8949999 C10.0487832,27.6306313 9.46760143,27.6677401 9.00510369,27.9931228 C8.38189298,28.3407002 8.0498105,29.1123715 8.19797141,29.8686833 C7.83122669,29.8500953 7.47746704,30.0213839 7.24032414,30.3323713 C7.00318125,30.6433587 6.90949952,31.0588412 6.98672244,31.4571059 C7.06688569,31.8377069 7.28711314,32.1636161 7.59390284,32.3556572 C7.90069255,32.5476984 8.26596713,32.5882959 8.60098699,32.467587 C8.64802355,33.0268848 8.95372634,33.5188231 9.40811926,33.7664279 C9.33363355,34.785132 9.88509179,35.7323299 10.7526056,36.0757499 C11.3899223,36.4167464 12.132569,36.4167464 12.7698857,36.0757499 C12.8880351,36.855868 13.1639919,37.5961254 13.577018,38.2408921 C14.6326147,39.859263 16.3502352,40.7810181 18.1489324,40.694394 C19.8279286,40.7173919 21.4720899,40.1624657 22.8551852,39.1059714 C23.9918803,38.1740646 25.3453077,37.6228614 26.7554069,37.5175489 C24.0653331,37.2340765 22.3178311,39.3992187 19.4934187,39.8329802 L19.4934187,39.8329802 Z" id="路径备份" fill="#F5D49A"></path>
                    </g>
                    <circle id="椭圆形" fill="#F5D49A" cx="17.75" cy="16.75" r="4.25"></circle>
                </g>
            </g>
        </g>
    </g>
</svg>