<?xml version="1.0" encoding="UTF-8"?>
<svg width="40px" height="40px" viewBox="0 0 40 40" version="1.1" xmlns="http://www.w3.org/2000/svg" xmlns:xlink="http://www.w3.org/1999/xlink">
    <!-- Generator: Sketch 60.1 (88133) - https://sketch.com -->
    <title>编组</title>
    <desc>Created with Sketch.</desc>
    <g id="页面-1" stroke="none" stroke-width="1" fill="none" fill-rule="evenodd">
        <g id="24-f-单聊-红包领取封面备份" transform="translate(-544.000000, -648.000000)" fill="#EBCD9A" fill-rule="nonzero">
            <g id="编组" transform="translate(544.500000, 648.000000)">
                <path d="M19.75,39.5 C17.0849895,39.5 14.4984833,38.9793933 12.0607218,37.9464435 C9.70972803,36.9506799 7.59837866,35.529341 5.78451883,33.7154812 C3.970659,31.9016213 2.54932008,29.790272 1.55355649,27.4392782 C0.524738494,25.0056485 0,22.4191423 0,19.75 C0,17.0808577 0.520606695,14.4984833 1.55355649,12.0607218 C2.54932008,9.70972803 3.970659,7.59837866 5.78451883,5.78451883 C7.59837866,3.970659 9.70972803,2.54932008 12.0607218,1.55355649 C14.4984833,0.524738494 17.0849895,0 19.75,0 C22.4150105,0 25.0015167,0.520606695 27.4392782,1.55355649 C29.790272,2.54932008 31.9016213,3.970659 33.7154812,5.78451883 C35.529341,7.59837866 36.9506799,9.70972803 37.9464435,12.0607218 C38.9752615,14.4943515 39.5,17.0808577 39.5,19.75 C39.5,22.4191423 38.9793933,25.0015167 37.9464435,27.4392782 C36.9506799,29.790272 35.529341,31.9016213 33.7154812,33.7154812 C31.9016213,35.529341 29.790272,36.9506799 27.4392782,37.9464435 C25.0015167,38.9752615 22.4150105,39.5 19.75,39.5 Z M19.75,2.4790795 C10.2262029,2.4790795 2.4790795,10.2262029 2.4790795,19.75 C2.4790795,29.2737971 10.2262029,37.0209205 19.75,37.0209205 C29.2737971,37.0209205 37.0209205,29.2737971 37.0209205,19.75 C37.0167887,10.2262029 29.2696653,2.4790795 19.75,2.4790795 Z" id="形状"></path>
                <path d="M12.2435798,28.5 C11.9246618,28.5 11.6057438,28.3793515 11.361378,28.1338943 C10.8767883,27.6471401 10.8809301,26.8566846 11.3655198,26.3699305 L25.882502,11.8629921 C26.3670917,11.376238 27.1540323,11.3803983 27.638622,11.8671524 C28.1232117,12.3539066 28.1190699,13.1443621 27.6344802,13.6311163 L13.1216398,28.1338943 C12.877274,28.3793515 12.5624978,28.5 12.2435798,28.5 L12.2435798,28.5 Z" id="路径"></path>
                <path d="M26.7551026,28.5 C26.4347798,28.5 26.1144571,28.3799099 25.8690149,28.1355887 L11.3629698,13.617112 C10.8762456,13.1326106 10.8804056,12.3458135 11.3671298,11.8613121 C11.853854,11.3768108 12.6442609,11.3809518 13.1309851,11.8654532 L27.6370302,26.3797889 C28.1237544,26.8642903 28.1195944,27.6510874 27.6328702,28.1355887 C27.3915881,28.3799099 27.0754254,28.5 26.7551026,28.5 Z" id="路径"></path>
            </g>
        </g>
    </g>
</svg>