<?xml version="1.0" encoding="UTF-8"?>
<svg width="80px" height="81px" viewBox="0 0 80 81" version="1.1" xmlns="http://www.w3.org/2000/svg" xmlns:xlink="http://www.w3.org/1999/xlink">
    <!-- Generator: Sketch 60.1 (88133) - https://sketch.com -->
    <title>编组 2</title>
    <desc>Created with Sketch.</desc>
    <g id="页面-1" stroke="none" stroke-width="1" fill="none" fill-rule="evenodd">
        <g id="24-f-单聊-红包领取封面备份" transform="translate(-524.000000, -504.000000)">
            <g id="编组-2" transform="translate(524.000000, 504.500000)">
                <circle id="椭圆形" fill="#EBCD9A" cx="40" cy="40" r="40"></circle>
                <g id="编组" transform="translate(23.000000, 20.000000)" fill="#3B3B3B" fill-rule="nonzero">
                    <path d="M2.57426698,13.5762965 L2.57426698,38.2729388 L0,39.6650598 C0.114776235,33.4067487 0.172164352,26.4835439 0.172164352,18.8912899 C0.172164352,11.2990359 0.114776235,5.01163564 0,0.0290890957 L2.74643133,1.77027926 L10.6372975,1.77027926 L12.3507427,0.0290890957 L14.5806809,2.28557181 L13.2074653,3.32862367 C13.2074653,8.65608378 13.2648534,12.1301529 13.3796296,13.7508311 L10.977527,14.9684176 L10.977527,13.5762965 L2.57426698,13.5762965 Z M2.57426698,2.81333112 L2.57426698,7.17253989 L10.977527,7.17253989 L10.977527,2.81333112 L2.57426698,2.81333112 Z M2.57426698,8.21559176 L2.57426698,12.5332447 L10.977527,12.5332447 L10.977527,8.21559176 L2.57426698,8.21559176 Z M20.9261671,26.292387 C20.9261671,30.9300199 20.9835552,34.0009973 21.0983314,35.5053191 L18.6962288,36.7229056 C18.811005,33.8264628 18.8683931,30.348238 18.8683931,26.292387 L13.7239583,26.292387 C13.6091821,28.7275598 12.8959298,30.8427527 11.5801022,32.6379654 C10.2642747,34.4331782 7.94825424,35.8543883 4.63614005,36.8974402 L4.46397569,36.2034574 C7.43586034,34.6949801 9.35016397,33.0161237 10.2068866,31.1627327 C11.0636092,29.3093418 11.4940201,27.684508 11.4940201,26.2965426 L9.9527392,26.2965426 C9.03862847,26.2965426 7.9523534,26.4710771 6.69391397,26.8159907 L5.1526331,25.2534907 L11.6702836,25.2534907 L11.6702836,19.311004 C10.5266204,19.311004 9.44034529,19.4855386 8.41145833,19.8304521 L6.86607832,18.2679521 L21.7869888,18.2679521 L23.500434,16.5309176 L26.074701,19.311004 L20.9261671,19.311004 L20.9261671,25.2493351 L23.6684992,25.2493351 L25.5541088,23.337766 L28.296441,26.292387 L20.9261671,26.292387 Z M13.7239583,19.311004 L13.7239583,25.2493351 L18.8683931,25.2493351 L18.8683931,19.311004 L13.7239583,19.311004 L13.7239583,19.311004 Z M19.380787,15.3133311 C19.4955633,14.1539229 19.5529514,11.6938165 19.5529514,7.93301197 C19.5529514,4.17220745 19.4955633,1.59574468 19.380787,0.20362367 L22.2993827,1.77027926 L29.841821,1.77027926 L31.5552662,0.0290890957 L33.9573688,2.46426197 L32.5882523,3.50731383 L32.5882523,34.7988697 C32.5882523,36.0746343 32.3873939,37.0304189 31.9856771,37.6662234 C31.5839603,38.3020279 30.5837674,39.0292553 28.9850984,39.8395944 C28.296441,38.0984043 26.5829958,36.8808178 23.8406636,36.1868351 L23.8406636,35.4886968 C26.0132137,35.837766 27.6118827,36.0123005 28.6407697,36.0123005 C29.2105517,36.0123005 29.6122685,35.8959441 29.841821,35.6632314 C30.0713735,35.4305186 30.1861497,35.0274269 30.1861497,34.4456449 L30.1861497,13.5762965 L21.955054,13.5762965 L21.955054,14.2702793 L19.380787,15.3133311 L19.380787,15.3133311 Z M21.955054,2.81333112 L21.955054,7.17253989 L30.1861497,7.17253989 L30.1861497,2.81333112 L21.955054,2.81333112 L21.955054,2.81333112 Z M21.955054,8.21559176 L21.955054,12.5332447 L30.1861497,12.5332447 L30.1861497,8.21559176 L21.955054,8.21559176 L21.955054,8.21559176 Z" id="形状"></path>
                </g>
            </g>
        </g>
    </g>
</svg>