<?xml version="1.0" encoding="UTF-8"?>
<svg width="20px" height="20px" viewBox="0 0 20 20" version="1.1" xmlns="http://www.w3.org/2000/svg" xmlns:xlink="http://www.w3.org/1999/xlink">
    <!-- Generator: Sketch 60.1 (88133) - https://sketch.com -->
    <title>编组</title>
    <desc>Created with Sketch.</desc>
    <g id="页面-1" stroke="none" stroke-width="1" fill="none" fill-rule="evenodd">
        <g id="40回复消息的的状态*自己" transform="translate(-850.000000, -50.000000)" fill="#888888" fill-rule="nonzero">
            <g id="编组" transform="translate(850.000000, 50.000000)">
                <path d="M16.3764205,15.1585714 C17.7287286,13.5038085 18.4668939,11.42766 18.4644886,9.28571429 C18.4644886,4.16714286 14.3238636,0 9.23153409,0 C4.13514052,0.00629858401 0.00547867566,4.16019756 2.84217094e-14,9.28571429 C2.84217094e-14,14.4071429 4.140625,18.5714286 9.23295455,18.5714286 C11.4446023,18.5714286 13.4801136,17.7828571 15.0710227,16.4714286 L18.3096591,19.7285714 C18.4914773,19.91 18.7272727,20.0000144 18.9630682,20.0000144 C19.3369457,20.0020929 19.6749365,19.7765283 19.8182951,19.4292479 C19.9616537,19.0819675 19.8818941,18.6819776 19.6164773,18.4171429 L16.3764205,15.16 L16.3764205,15.1585714 Z M1.84517045,9.28571429 C1.84517045,5.19 5.16051136,1.85714286 9.23153409,1.85714286 C13.3039773,1.85714286 16.6178977,5.19 16.6178977,9.28571429 C16.6178977,13.3814286 13.3039773,16.7142857 9.23153409,16.7142857 C5.15410508,16.7095623 1.84986706,13.3864429 1.84517045,9.28571429 Z" id="形状"></path>
            </g>
        </g>
    </g>
</svg>