<?xml version="1.0" encoding="UTF-8"?>
<svg width="20px" height="20px" viewBox="0 0 20 20" version="1.1" xmlns="http://www.w3.org/2000/svg" xmlns:xlink="http://www.w3.org/1999/xlink">
    <!-- Generator: Sketch 60.1 (88133) - https://sketch.com -->
    <title>编组</title>
    <desc>Created with Sketch.</desc>
    <g id="页面-1" stroke="none" stroke-width="1" fill="none" fill-rule="evenodd">
        <g id="40回复消息的的状态*自己" transform="translate(-930.000000, -50.000000)" fill="#0091FF" fill-rule="nonzero">
            <g id="编组" transform="translate(930.000000, 50.000000)">
                <path d="M9.95530162,13.75 C7.84087376,13.75 6.22395833,12.125 6.22395833,10 C6.22395833,7.875 7.84087376,6.25 9.95530162,6.25 C12.0697295,6.25 13.6866449,7.875 13.6866449,10 C13.6866449,12.125 12.0697295,13.75 9.95530162,13.75 Z M9.95530162,7.5 C8.58714241,7.5 7.46773943,8.625 7.46773943,10 C7.46773943,11.375 8.58714241,12.5 9.95530162,12.5 C11.3234608,12.5 12.4428638,11.375 12.4428638,10 C12.4428638,8.625 11.3234608,7.5 9.95530162,7.5 Z" id="形状"></path>
                <path d="M12.4428638,20 L7.46773943,20 C7.0946051,20 6.84584888,19.75 6.84584888,19.375 L6.84584888,17 C6.34833644,16.75 5.850824,16.5 5.47768968,16.25 L3.48763993,17.5 C3.23888371,17.625 2.86574938,17.625 2.61699316,17.25 L0.12943097,12.875 C-0.119325249,12.5 0.0050528607,12.125 0.378187189,12 L2.36823694,10.75 L2.36823694,9.25 L0.378187189,8 C0.0050528607,7.875 -0.119325249,7.5 0.12943097,7.125 L2.61699316,2.75 C2.74137127,2.5 3.1145056,2.375 3.48763993,2.625 L5.47768968,3.875 C5.850824,3.625 6.34833644,3.25 6.84584888,3.125 L6.84584888,0.625 C6.84584888,0.25 7.0946051,0 7.46773943,0 L12.4428638,0 C12.8159981,0 13.0647544,0.25 13.0647544,0.625 L13.0647544,3 C13.5622668,3.25 14.0597792,3.5 14.4329136,3.75 L16.4229633,2.5 C16.6717195,2.375 17.0448539,2.375 17.2936101,2.75 L19.7811723,7.125 C20.0299285,7.5 19.9055504,7.875 19.532416,8 L17.5423663,9.25 L17.5423663,10.75 L19.532416,12 C19.7811723,12.125 19.9055504,12.5 19.7811723,12.875 L17.2936101,17.25 C17.169232,17.5 16.7960976,17.625 16.4229633,17.5 L14.4329136,16.25 C14.0597792,16.5 13.5622668,16.875 13.0647544,17 L13.0647544,19.375 C13.0647544,19.75 12.8159981,20 12.4428638,20 Z M8.08962998,18.75 L11.8209733,18.75 L11.8209733,16.625 C11.8209733,16.375 11.9453514,16.125 12.1941076,16 C12.8159981,15.75 13.4378887,15.375 13.9354011,15 C14.1841573,14.875 14.4329136,14.875 14.6816698,15 L16.5473414,16.125 L18.4130131,12.875 L16.5473414,11.75 C16.2985852,11.5 16.1742071,11.25 16.2985852,11 C16.2985852,10.625 16.4229633,10.375 16.4229633,10 C16.4229633,9.625 16.4229633,9.375 16.2985852,9 C16.2985852,8.75 16.4229633,8.5 16.5473414,8.375 L18.4130131,7.25 L16.5473414,4 L14.6816698,5.125 C14.4329136,5.25 14.1841573,5.25 13.9354011,5.125 C13.4378887,4.75 12.8159981,4.375 12.1941076,4.125 C11.9453514,3.875 11.8209733,3.625 11.8209733,3.375 L11.8209733,1.25 L8.08962998,1.25 L8.08962998,3.375 C8.08962998,3.625 7.96525187,3.875 7.71649565,4 C7.0946051,4.25 6.47271455,4.625 5.97520211,5 C5.7264459,5.125 5.47768968,5.125 5.22893346,5 L3.36326182,4 L1.49759017,7.25 L3.36326182,8.375 C3.61201803,8.5 3.73639614,8.75 3.61201803,9 C3.61201803,9.375 3.48763993,9.625 3.48763993,10 C3.48763993,10.375 3.48763993,10.625 3.61201803,11 C3.73639614,11.25 3.61201803,11.5 3.36326182,11.625 L1.49759017,12.75 L3.36326182,16 L5.22893346,14.875 C5.47768968,14.75 5.7264459,14.75 5.97520211,14.875 C6.47271455,15.25 7.0946051,15.625 7.71649565,15.875 C7.96525187,16 8.08962998,16.25 8.08962998,16.5 L8.08962998,18.75 Z" id="形状"></path>
            </g>
        </g>
    </g>
</svg>
