<?xml version="1.0" encoding="UTF-8"?>
<svg width="20px" height="14px" viewBox="0 0 20 14" version="1.1" xmlns="http://www.w3.org/2000/svg" xmlns:xlink="http://www.w3.org/1999/xlink">
    <!-- Generator: Sketch 60.1 (88133) - https://sketch.com -->
    <title>编组备份 2</title>
    <desc>Created with Sketch.</desc>
    <g id="页面-1" stroke="none" stroke-width="1" fill="none" fill-rule="evenodd">
        <g id="4登录-输入密码的状态-眼睛打开状态" transform="translate(-360.000000, -169.000000)" fill="#CCCCCC" fill-rule="nonzero">
            <g id="编组备份-2" transform="translate(360.000000, 169.000000)">
                <path d="M19.677401,6.35052752 C18.6461737,4.61548478 15.5670162,0.00864717172 9.9315768,0.00864717172 C5.73596631,0.119980736 1.94996055,2.62886116 0.113130898,6.51505744 C-0.0321499084,6.81660864 -0.0321499084,7.17077116 0.113130898,7.47232237 C1.86849732,11.3996194 5.66645707,13.9315739 9.86447925,13.9731735 C14.0625014,14.0147731 17.9070706,11.5585508 19.7354984,7.66676683 C19.9346197,7.24636697 19.9127367,6.75059068 19.677401,6.35052752 L19.677401,6.35052752 Z M9.9315768,12.1838608 C7.14809375,12.1838608 4.89163491,9.86014216 4.89163491,6.9936899 C4.89163491,4.12723765 7.14809375,1.80351898 9.9315768,1.80351898 C12.7150598,1.80351898 14.9715187,4.12723765 14.9715187,6.9936899 C14.9635411,9.85673233 12.7117487,12.1756455 9.9315768,12.1838608 L9.9315768,12.1838608 Z" id="形状"></path>
                <path d="M7.21552742,6.9936899 C7.21552742,8.53843507 8.43154415,9.79069845 9.9315768,9.79069845 C11.4316094,9.79069845 12.6476262,8.53843507 12.6476262,6.9936899 C12.6476262,5.44894474 11.4316094,4.19668136 9.9315768,4.19668136 C8.43154415,4.19668136 7.21552742,5.44894474 7.21552742,6.9936899 L7.21552742,6.9936899 Z" id="路径"></path>
            </g>
        </g>
    </g>
</svg>