<?xml version="1.0" encoding="UTF-8"?>
<svg width="20px" height="20px" viewBox="0 0 20 20" version="1.1" xmlns="http://www.w3.org/2000/svg" xmlns:xlink="http://www.w3.org/1999/xlink">
    <!-- Generator: Sketch 60.1 (88133) - https://sketch.com -->
    <title>编组</title>
    <desc>Created with Sketch.</desc>
    <g id="页面-1" stroke="none" stroke-width="1" fill="none" fill-rule="evenodd">
        <g id="40回复消息的的状态*自己" transform="translate(-890.000000, -50.000000)" fill="#0091FF" fill-rule="nonzero">
            <g id="编组" transform="translate(890.000000, 50.000000)">
                <path d="M17.4663206,14.2373643 L14.4375071,12.3009071 C13.7558492,11.8659454 12.864971,11.9809743 12.3132133,12.5751929 C11.9873376,12.92685 11.5316314,13.4162214 11.2114054,13.7507357 C11.0362641,13.9335929 10.4443997,13.7802214 10.2308404,13.6639929 C9.43527488,13.1531987 8.67267712,12.5916815 7.94767655,11.98285 C7.05795904,11.2203357 6.31603814,10.1250214 5.85027542,9.34045 C5.6327613,8.97393571 6.02586864,8.61005 6.10044492,8.54605 L7.00756356,7.67747857 C7.71262891,7.00325174 7.82985616,5.91121537 7.28428672,5.09965 L5.69106638,2.71553571 C5.01794415,1.72217866 3.68687433,1.44838002 2.68360876,2.09690714 C2.14424523,2.43963182 1.62370305,2.81176194 1.12428672,3.21165 C0.127111582,4.04216429 -0.210289548,5.63267857 0.149032486,7.81290714 C0.440331921,9.57907857 1.5088065,11.5582786 3.51151836,14.0414786 C5.64711158,16.6897071 8.4507274,18.2243357 9.94157486,18.9063929 C11.3735523,19.6326786 12.5633828,19.8955357 13.5471116,19.8955357 C15.4398799,19.8955357 16.5647387,18.92125 17.1622528,18.40365 L17.2555862,18.32365 C17.7825918,17.8717643 18.139202,17.1566786 18.3156992,16.1986214 C18.4589,15.4303367 18.1217456,14.6518305 17.4663206,14.2373643 Z M16.7821398,15.9095929 C16.6777331,16.4769071 16.4823658,16.9183929 16.2463206,17.1210214 L16.1471116,17.2067357 C15.3060946,17.9353071 13.898524,19.1549643 10.6282415,17.4909643 L10.598637,17.4767929 C9.23649011,16.85485 6.66157486,15.4522214 4.7206709,13.0457071 C2.92123588,10.8145071 1.92971045,9.01816429 1.68778955,7.55393571 C1.4327613,6.00696429 1.58891949,4.86822143 2.11615113,4.42913571 C2.56957152,4.06843457 3.04152966,3.73223201 3.53004944,3.42193571 C3.63353314,3.35384869 3.75428067,3.31749224 3.87773305,3.31724991 C4.08691279,3.31724991 4.28235465,3.42260116 4.39875,3.59839286 L5.99197034,5.98262143 C6.10891338,6.15664614 6.08373486,6.39078097 5.93253531,6.53530714 L5.09287429,7.34273571 C4.55987994,7.79450714 3.78654661,8.92856429 4.5127613,10.1518786 C5.03886299,11.0382786 5.88688559,12.2842214 6.93897599,13.1858214 C7.74593297,13.8671268 8.59876283,14.4908412 9.49129237,15.05245 C9.9747952,15.3153071 11.4277895,15.7919929 12.3324223,14.8474214 C12.6601059,14.5054786 13.1216879,14.0093643 13.4510664,13.6534786 C13.4904473,13.6110853 13.5539816,13.6028014 13.6027048,13.6337071 L16.6309534,15.5699357 C16.7457847,15.6407827 16.805826,15.7756723 16.7821398,15.9095929 L16.7821398,15.9095929 Z M11.0055297,5.73816429 C12.7845772,5.73967483 14.2267046,7.19741459 14.2292585,8.99679286 C14.2292585,9.43230883 14.5783246,9.78536429 15.0089195,9.78536429 C15.4395144,9.78536429 15.7885805,9.43230883 15.7885805,8.99679286 C15.784843,6.32677455 13.644928,4.16368153 11.0050777,4.16147857 C10.7265316,4.16156022 10.4691875,4.31193654 10.3299844,4.55596223 C10.1907813,4.79998791 10.1908674,5.10058965 10.3302104,5.34453367 C10.4695534,5.58847769 10.7269836,5.7387031 11.0055297,5.73862143 L11.0055297,5.73816429 Z M11.0055297,0.00925 C10.5749348,0.00925 10.2258686,0.362305454 10.2258686,0.797821429 C10.2258686,1.2333374 10.5749348,1.58639286 11.0055297,1.58639286 C15.0516905,1.58947692 18.331725,4.9048502 18.3373941,8.99725 C18.3373941,9.43292377 18.6865867,9.78610714 19.1173376,9.78610714 C19.5480885,9.78610714 19.8972811,9.43292377 19.8972811,8.99725 C19.8902418,4.03426242 15.9124419,0.0136605251 11.0055297,0.00982142857 L11.0055297,0.00925 Z" id="形状"></path>
            </g>
        </g>
    </g>
</svg>
