<?xml version="1.0" encoding="UTF-8"?>
<svg width="14px" height="14px" viewBox="0 0 14 14" version="1.1" xmlns="http://www.w3.org/2000/svg" xmlns:xlink="http://www.w3.org/1999/xlink">
    <!-- Generator: Sketch 60.1 (88133) - https://sketch.com -->
    <title>编组</title>
    <desc>Created with Sketch.</desc>
    <g id="页面-1" stroke="none" stroke-width="1" fill="none" fill-rule="evenodd">
        <g id="11注册-昵称&amp;性别&amp;头像" transform="translate(-316.000000, -269.000000)" fill="#CCCCCC" fill-rule="nonzero">
            <g id="编组" transform="translate(316.000000, 269.000000)">
                <path d="M8.04941699,3.3581142 C7.3642308,3.35541965 6.70643548,3.62693517 6.22265409,4.11215991 C5.72673871,4.58418031 5.44581455,5.23873361 5.44526062,5.9233759 C5.44115696,6.60363605 5.70902017,7.25734837 6.18931521,7.73910327 C6.66961025,8.22085817 7.32250662,8.4907041 8.00277624,8.48862944 C8.68792721,8.47968225 9.34176717,8.20026347 9.82176568,7.71127152 C10.3166004,7.23528575 10.5971147,6.57888229 10.5991116,5.89228206 C10.5898212,5.20947797 10.3102973,4.55818725 9.82176568,4.08106608 C9.34774648,3.6183613 8.71182864,3.35897376 8.04941699,3.3581142 L8.04941699,3.3581142 Z" id="路径"></path>
                <path d="M7,0 C3.13615334,0 0.00388673633,3.1322666 0.00388673633,6.99611326 L0.00388673633,13.9922265 L7,13.9922265 C10.8638466,13.9922265 13.9961132,10.8599599 13.9961132,6.99611327 C13.9961132,3.13226664 10.8638466,0 7,0 Z M10.6068851,8.48861743 C9.92745841,9.1696876 9.00364976,9.55040874 8.04164353,9.54580788 C7.26136856,9.5492481 6.50176028,9.29513454 5.88062188,8.82287618 L5.25874515,9.44475291 L6.3159356,10.5019434 C6.42451133,10.6020217 6.48627639,10.7429533 6.48627639,10.8906163 C6.48627639,11.0382793 6.42451133,11.179211 6.3159356,11.2792893 C6.2188733,11.3820933 6.08418659,11.4410187 5.94280955,11.4425319 C5.79731343,11.4506078 5.65640414,11.3902181 5.56191005,11.2792893 L4.51249306,10.2143254 L3.54081066,11.1860078 C3.44374836,11.2888118 3.30906166,11.3477372 3.16768463,11.3492504 C3.02281706,11.3538835 2.88333881,11.2941071 2.78678512,11.1860078 C2.67820938,11.0859295 2.61644433,10.9449978 2.61644433,10.7973348 C2.61644433,10.6496718 2.67820938,10.5087402 2.78678512,10.4086619 L3.75069406,9.44475291 L2.68573015,8.38756246 C2.57926145,8.28631078 2.51898925,8.14581632 2.51898925,7.99888951 C2.51898925,7.8519627 2.57926145,7.71146823 2.68573015,7.61021655 C2.78918987,7.51321007 2.924839,7.45784307 3.06662964,7.45474736 C3.21008039,7.4491872 3.34894042,7.50586476 3.44752915,7.61021655 L4.5047196,8.667407 L5.11882287,8.05330373 C4.65578039,7.43124734 4.40750936,6.67552122 4.41143809,5.90005552 C4.41096076,4.42626323 5.29971239,3.09779174 6.66214295,2.53578913 C8.0245735,1.97378653 9.5914702,2.28930308 10.6302054,3.33481399 C11.3123173,4.02129372 11.6855864,4.95586969 11.6640755,5.9233759 C11.6796311,6.88595659 11.3004122,7.81293599 10.6146585,8.48861743 L10.6068851,8.48861743 Z" id="形状"></path>
            </g>
        </g>
    </g>
</svg>