<?xml version="1.0" encoding="UTF-8"?>
<svg width="132px" height="146px" viewBox="0 0 132 146" version="1.1" xmlns="http://www.w3.org/2000/svg" xmlns:xlink="http://www.w3.org/1999/xlink">
    <!-- Generator: Sketch 64 (93537) - https://sketch.com -->
    <title>编组</title>
    <desc>Created with Sketch.</desc>
    <g id="页面-1" stroke="none" stroke-width="1" fill="none" fill-rule="evenodd">
        <g id="1080-1920" transform="translate(-478.000000, -1556.000000)" fill="#0091FF">
            <g id="编组" transform="translate(478.328345, 1556.250000)">
                <path d="M65.797167,0.375 L65.797167,0.375 C29.5528343,0.375 0.17165493,29.8384494 0.17165493,66.1842697 C0.17165493,90.3747609 13.1881923,111.514865 32.5803647,122.949194 C41.9108121,128.450161 53.6716822,121.489733 53.6716822,110.63467 L53.6716822,67.6909758 C53.6716822,64.716592 53.3593017,62.7415436 52.7386375,61.7648036 C52.1159249,60.7880636 51.0937749,60.3012342 49.6742359,60.3012342 C47.0092717,60.3012342 45.6757654,62.810357 45.6757654,67.8306568 L45.6757654,97.755259 C45.6757654,101.482482 42.6635979,104.505138 38.9457577,104.505138 L33.9691777,104.505138 C26.9687817,104.505138 21.2936984,98.8141643 21.2936984,91.7941665 L21.2936984,62.5320221 C21.2936984,54.9101635 23.7353874,48.4262943 28.6218379,43.0793874 C33.8585643,37.3473307 40.3274014,34.6882562 48.0191313,35.1031909 C50.5437803,35.2397908 52.9936629,35.9505206 55.3564886,36.8574201 C62.5053934,39.599687 70.3999146,39.3798948 77.5293596,36.5472461 C80.0212343,35.5571542 82.5049154,35.0610812 84.9834755,35.0610812 C92.7991335,35.0610812 98.9740256,37.7119392 103.504055,43.010574 C108.034085,48.3081817 110.299611,55.7924134 110.299611,65.4601879 L110.299611,91.7941665 C110.299611,98.8141643 104.625552,104.505138 97.6251563,104.505138 L92.6465279,104.505138 C88.929712,104.505138 85.9165203,101.482482 85.9165203,97.755259 L85.9165203,67.6909758 C85.9165203,62.7651661 84.6280787,60.3012342 82.0522197,60.3012342 C79.2981503,60.3012342 77.9226518,62.810357 77.9226518,67.8306568 L77.9226518,110.63467 C77.9226518,121.489733 89.6824978,128.450161 99.0139693,122.949194 C118.405118,111.514865 131.421655,90.3747609 131.421655,66.1842697 C131.421655,29.8384494 102.0415,0.375 65.797167,0.375" id="Fill-2"></path>
                <path d="M66.6771556,145.125 L64.9171646,145.125 C59.8109679,145.125 55.6716549,140.985687 55.6716549,135.881511 L55.6716549,134.119499 C55.6716549,129.014313 59.8109679,124.875 64.9171646,124.875 L66.6771556,124.875 C71.7833523,124.875 75.9216549,129.014313 75.9216549,134.119499 L75.9216549,135.881511 C75.9216549,140.985687 71.7833523,145.125 66.6771556,145.125" id="Fill-4"></path>
            </g>
        </g>
    </g>
</svg>